<svg width="131" height="123" viewBox="0 0 131 123" fill="none" xmlns="http://www.w3.org/2000/svg">
<rect width="123.698" height="115.178" rx="19" transform="matrix(0.998396 -0.0566246 0.0564484 0.998406 0.848267 7.60693)" fill="#FFC700"/>
<path fill-rule="evenodd" clip-rule="evenodd" d="M19.7613 24.8899C24.3051 22.6091 29.1811 20.7197 35.5675 23.213C43.9967 26.5042 50.824 35.7867 51.4524 44.9307C51.7527 49.298 51.4624 55.9552 45.938 59.5052C42.9962 61.3955 38.7895 62.1557 34.9819 62.3266C31.0974 62.5009 27.0224 62.086 24.0398 61.1604C20.5434 60.0754 17.8021 58.1702 15.9227 55.444C14.0693 52.7558 13.2184 49.5097 13.0478 45.9948C12.9161 43.2866 12.9231 40.0293 13.2992 36.8016C13.6702 33.6104 14.4234 30.2423 15.9097 27.4431C16.4644 26.3993 17.5447 25.8181 18.648 25.8533C18.9243 25.4567 19.2994 25.1216 19.7613 24.8899ZM21.0322 30.5819C20.1354 32.4072 19.5558 34.8134 19.2436 37.4985C18.9174 40.3026 18.9054 43.212 19.0261 45.7019C19.1598 48.4567 19.8042 50.5162 20.8436 52.0237C21.8571 53.4933 23.4063 54.6738 25.8074 55.419C27.9651 56.0886 31.3189 56.4756 34.7145 56.3232C38.187 56.1674 41.1108 55.4724 42.7119 54.4437C45.119 52.897 45.7763 49.6423 45.4811 45.3442C45.0132 38.5214 39.6654 31.2609 33.3978 28.8137C29.4485 27.2716 26.5646 28.1934 22.4377 30.2649C21.9858 30.4917 21.505 30.593 21.0322 30.5819ZM41.2694 92.2053C40.9662 90.574 39.403 89.4986 37.779 89.8033C36.154 90.108 35.0826 91.6773 35.3859 93.3086C35.4318 93.553 35.4807 93.8427 35.5345 94.1591C35.6662 94.9388 35.8258 95.8811 36.0273 96.7102C36.3356 97.973 36.8283 99.4133 37.789 100.75C40.0135 103.844 43.5778 107.369 47.0213 109.367C51.3377 111.872 56.6407 111.507 60.4533 110.792L60.4463 110.794L60.4503 110.793C60.4633 110.791 60.5032 110.786 60.582 110.777C60.6718 110.767 60.7675 110.758 60.8882 110.746L61.0199 110.733C61.3611 110.699 61.8379 110.65 62.3197 110.568C62.7706 110.491 63.411 110.358 64.0255 110.087C64.5223 109.868 65.7982 109.215 66.2371 107.665C66.689 106.069 65.7672 104.407 64.1771 103.953C63.1327 103.655 62.0603 103.952 61.3192 104.643C61.0608 104.687 60.7665 104.719 60.4304 104.753L60.3276 104.763C60.1989 104.775 60.0573 104.79 59.9316 104.803C59.7799 104.82 59.5655 104.845 59.355 104.885C55.8526 105.541 52.3891 105.541 50.0169 104.165C47.4532 102.677 44.4845 99.7955 42.6421 97.2327C42.3079 96.7671 42.0535 96.1528 41.841 95.2802C41.6894 94.6603 41.5956 94.0988 41.4849 93.4405C41.4231 93.0689 41.3552 92.6665 41.2694 92.2053ZM61.0538 25.6582C61.0538 23.9988 59.7141 22.6535 58.0612 22.6535C56.4082 22.6535 55.0685 23.9988 55.0685 25.6582C55.0685 35.1 54.3603 43.551 51.7237 52.4573C51.5592 53.0106 51.3896 53.5774 51.215 54.1554C49.971 58.2958 48.5535 63.0156 48.0757 67.5731C47.9889 68.401 47.7984 69.1854 47.552 70.1983L47.55 70.2045L47.4901 70.4543C47.4632 70.5657 47.4353 70.6799 47.4073 70.7973C47.1131 72.0264 46.7839 73.5318 46.7839 75.2102C46.7839 75.1846 46.7829 75.2035 46.7709 75.3809L46.7569 75.5814C46.738 75.8502 46.7141 76.2208 46.7041 76.5999C46.6961 76.9517 46.6961 77.4446 46.7609 77.9246C46.7919 78.1569 46.8567 78.5276 47.0143 78.9267C47.142 79.2494 47.531 80.1166 48.5246 80.6417C50.4599 81.6646 52.9667 81.9649 54.876 82.1435C55.4985 82.2019 56.0751 82.2488 56.6087 82.2924C57.9764 82.4037 59.0667 82.4927 59.9585 82.6926C67.0082 84.2741 74.0619 85.5826 81.1165 86.8419C82.7435 87.1323 84.2977 86.0433 84.587 84.4095C84.8763 82.7756 83.792 81.2157 82.164 80.9252C75.1262 79.6691 68.1793 78.3792 61.2633 76.8277C59.9276 76.5283 58.2068 76.3894 56.7035 76.2679C56.2546 76.2317 55.8257 76.1971 55.4316 76.1602C54.3443 76.0583 53.4515 75.9378 52.7422 75.7874C52.7462 75.7337 52.7502 75.6816 52.7532 75.635C52.7582 75.5444 52.7692 75.3732 52.7692 75.2102C52.7692 74.2866 52.9487 73.365 53.227 72.2007C53.2649 72.0436 53.3049 71.8787 53.3468 71.707C53.5922 70.7038 53.8944 69.4703 54.0281 68.2022C54.4421 64.2526 55.678 60.1245 56.9379 55.9194C57.1125 55.3376 57.2871 54.7543 57.4606 54.1698C60.3236 44.5018 61.0538 35.4167 61.0538 25.6582ZM86.9602 40.5437C87.3362 40.5573 87.6614 40.5691 88.0136 40.5691C88.232 40.5691 88.4455 40.5926 88.651 40.6373C88.8555 40.5926 89.069 40.5691 89.2874 40.5691C95.184 40.5691 100.752 40.601 106.824 41.9559C108.496 42.3287 109.684 43.4813 110.438 44.4059C111.243 45.3915 111.907 46.5602 112.438 47.634C113.21 49.1952 113.905 51.0198 114.311 52.0823C114.438 52.4165 114.536 52.6755 114.6 52.827C116.391 57.1154 118.362 62.7761 115.558 68.5622C114.085 71.6029 112.079 73.8547 109.304 74.9758C106.595 76.0708 103.655 75.878 100.734 75.1376C97.3676 74.2843 91.8222 72.7453 86.8554 70.3513C84.3725 69.154 81.9126 67.6865 79.9185 65.8932C77.9284 64.1029 76.2335 61.8325 75.634 59.0262C75.0903 56.4784 75.0784 53.4712 75.64 50.6374C76.1976 47.8308 77.3837 44.878 79.5244 42.7288C81.0437 41.203 82.8094 40.7066 84.3406 40.5645C85.0718 40.4966 85.7811 40.5061 86.3776 40.5239C86.5891 40.5301 86.7796 40.5371 86.9592 40.5436L86.9602 40.5437ZM88.651 46.5102C88.4455 46.5549 88.232 46.5785 88.0136 46.5785C87.5487 46.5785 87.0509 46.5605 86.628 46.5452C86.4744 46.5397 86.3297 46.5345 86.201 46.5306C85.6584 46.5145 85.2464 46.5154 84.8912 46.5483C84.2488 46.608 83.9825 46.7516 83.757 46.978C82.7356 48.0033 81.9295 49.7012 81.5106 51.8119C81.0966 53.8957 81.1245 56.0728 81.4866 57.7671C81.731 58.9136 82.4891 60.1373 83.9126 61.4173C85.3322 62.6942 87.2465 63.8733 89.4461 64.934C93.8483 67.0559 98.9128 68.478 102.2 69.311C104.524 69.9001 106.022 69.8241 107.07 69.4009C108.052 69.0039 109.125 68.1027 110.176 65.9333C111.712 62.7618 110.862 59.4181 109.081 55.1509C108.917 54.759 108.749 54.3175 108.566 53.8375V53.8362C108.172 52.8011 107.71 51.5871 107.077 50.3065C106.637 49.4166 106.205 48.6996 105.808 48.213C105.595 47.9522 105.458 47.837 105.402 47.7945C100.099 46.6275 95.176 46.5785 89.2874 46.5785C89.069 46.5785 88.8555 46.5549 88.651 46.5102ZM82.9151 28.412C81.2622 28.412 79.9225 29.7573 79.9225 31.4167C79.9225 33.0762 81.2622 34.4214 82.9151 34.4214H105.219C106.872 34.4214 108.212 33.0762 108.212 31.4167C108.212 29.7573 106.872 28.412 105.219 28.412H82.9151Z" fill="#222222"/>
</svg>
