<svg viewBox="0 0 1800 1330" fill="none" xmlns="http://www.w3.org/2000/svg">
<path d="M1322.5 367L1332 387.5M1356 348.5V376.5M1380.5 376.5L1370.5 405M1568 823.5L1583 845.5M1606.5 804V835M1643 819.5L1626 845.5M1180.5 1122.5L1175 1161M1142 1110.5L1147.5 1147M1109.5 1112.5L1128 1147M133 938L145.5 963.5M166 920V947M197 926.5L187 956" stroke="black" stroke-width="11" stroke-linecap="round"/>
<path d="M818.995 305.043C821.441 364.141 814.431 417.777 801.306 456.666C794.737 476.129 786.732 491.613 777.851 502.24C768.972 512.866 759.634 518.18 750.267 518.568C740.899 518.955 731.154 514.431 721.427 504.576C711.698 494.719 702.441 479.95 694.286 461.096C677.992 423.425 666.574 370.551 664.127 311.453C661.681 252.355 668.691 198.718 681.816 159.829C688.385 140.366 696.39 124.882 705.271 114.255C714.15 103.63 723.488 98.3157 732.856 97.928C742.223 97.5402 751.968 102.065 761.695 111.92C771.424 121.777 780.681 136.546 788.836 155.4C805.13 193.071 816.549 245.945 818.995 305.043Z" stroke="black" stroke-width="11"/>
<path d="M796.362 363.048C754.538 404.873 710.327 436.041 672.826 452.722C654.057 461.071 637.243 465.668 623.41 466.331C609.579 466.994 599.345 463.723 592.715 457.094C586.086 450.464 582.815 440.23 583.478 426.399C584.141 412.566 588.738 395.752 597.087 376.983C613.768 339.482 644.936 295.271 686.76 253.447C728.585 211.622 772.795 180.454 810.297 163.773C829.065 155.424 845.879 150.828 859.712 150.164C873.544 149.501 883.778 152.772 890.407 159.402C897.036 166.031 900.308 176.265 899.645 190.097C898.981 203.93 894.385 220.744 886.036 239.512C869.355 277.014 838.186 321.224 796.362 363.048Z" stroke="black" stroke-width="11"/>
<path d="M702.812 375.365C651.587 345.79 610.038 311.153 584.22 279.247C571.298 263.279 562.506 248.228 558.285 235.038C554.065 221.849 554.576 211.117 559.263 202.998C563.951 194.879 572.99 189.07 586.521 186.131C600.055 183.191 617.486 183.279 637.776 186.486C678.316 192.893 729.087 211.556 780.312 241.131C831.536 270.705 873.085 305.342 898.903 337.248C911.825 353.217 920.617 368.268 924.838 381.458C929.059 394.646 928.548 405.379 923.86 413.498C919.172 421.617 910.133 427.426 896.602 430.365C883.068 433.305 865.637 433.216 845.348 430.01C804.807 423.603 754.036 404.939 702.812 375.365Z" stroke="black" stroke-width="11"/>
<path d="M675.562 575.248H719.562C711.895 560.248 701.162 525.048 719.562 504.248" stroke="black" stroke-width="10" stroke-linecap="round"/>
<path d="M833.562 562.248H789.562C797.228 547.248 807.962 512.048 789.562 491.248" stroke="black" stroke-width="10" stroke-linecap="round"/>
<path d="M731.062 285.248C731.062 288.772 730.291 291.937 729.071 294.203C727.84 296.49 726.222 297.748 724.562 297.748C722.901 297.748 721.283 296.49 720.052 294.203C718.832 291.937 718.062 288.772 718.062 285.248C718.062 281.724 718.832 278.559 720.052 276.293C721.283 274.006 722.901 272.748 724.562 272.748C726.222 272.748 727.84 274.006 729.071 276.293C730.291 278.559 731.062 281.724 731.062 285.248Z" fill="black" stroke="black"/>
<path d="M758.062 280.248C758.062 283.772 757.291 286.937 756.071 289.203C754.84 291.49 753.222 292.748 751.562 292.748C749.901 292.748 748.283 291.49 747.052 289.203C745.832 286.937 745.062 283.772 745.062 280.248C745.062 276.724 745.832 273.559 747.052 271.293C748.283 269.006 749.901 267.748 751.562 267.748C753.222 267.748 754.84 269.006 756.071 271.293C757.291 273.559 758.062 276.724 758.062 280.248Z" fill="black" stroke="black"/>
<mask id="path-9-inside-1_330_179" fill="white">
<path d="M786.82 298.623C789.464 298.102 792.202 299.636 792.235 302.331C792.264 304.69 791.736 307.101 790.655 309.505C788.854 313.505 785.565 317.386 781.015 320.877C776.465 324.367 770.765 327.382 764.312 329.712C757.859 332.043 750.809 333.631 743.654 334.368C736.499 335.104 729.412 334.97 722.886 333.976C716.361 332.982 710.555 331.151 705.873 328.61C701.191 326.07 697.747 322.883 695.78 319.269C694.442 316.81 693.81 314.195 693.894 311.51C693.965 309.217 696.066 307.677 698.359 307.656V307.656C701.78 307.625 704.228 311.06 705.231 314.331C705.47 315.11 705.792 315.874 706.198 316.621C707.732 319.438 710.417 321.923 714.067 323.903C717.717 325.884 722.244 327.311 727.332 328.087C732.419 328.862 737.945 328.966 743.524 328.392C749.102 327.818 754.598 326.579 759.629 324.762C764.66 322.946 769.105 320.595 772.652 317.874C776.199 315.152 778.764 312.127 780.167 309.007C780.636 307.967 780.971 306.925 781.172 305.888C781.795 302.689 783.622 299.253 786.82 298.623V298.623Z"/>
</mask>
<path d="M786.82 298.623C789.464 298.102 792.202 299.636 792.235 302.331C792.264 304.69 791.736 307.101 790.655 309.505C788.854 313.505 785.565 317.386 781.015 320.877C776.465 324.367 770.765 327.382 764.312 329.712C757.859 332.043 750.809 333.631 743.654 334.368C736.499 335.104 729.412 334.97 722.886 333.976C716.361 332.982 710.555 331.151 705.873 328.61C701.191 326.07 697.747 322.883 695.78 319.269C694.442 316.81 693.81 314.195 693.894 311.51C693.965 309.217 696.066 307.677 698.359 307.656V307.656C701.78 307.625 704.228 311.06 705.231 314.331C705.47 315.11 705.792 315.874 706.198 316.621C707.732 319.438 710.417 321.923 714.067 323.903C717.717 325.884 722.244 327.311 727.332 328.087C732.419 328.862 737.945 328.966 743.524 328.392C749.102 327.818 754.598 326.579 759.629 324.762C764.66 322.946 769.105 320.595 772.652 317.874C776.199 315.152 778.764 312.127 780.167 309.007C780.636 307.967 780.971 306.925 781.172 305.888C781.795 302.689 783.622 299.253 786.82 298.623V298.623Z" fill="black" stroke="black" stroke-width="2" mask="url(#path-9-inside-1_330_179)"/>
<path d="M1087.5 257.5L1146.5 244.5C1152.9 243.09 1164.83 270.912 1170 285C1174.5 266.667 1185.4 230 1193 230C1200.6 230 1214.17 262 1220 278L1249.5 234L1293 264.5C1284.2 267.3 1245.33 369.667 1227 420.5C1208.6 406.9 1190.33 361.167 1183.5 340C1175.9 362.8 1146.33 401.5 1132.5 418C1108.1 380.8 1092.33 295.5 1087.5 257.5Z" stroke="black" stroke-width="10" stroke-linecap="round" stroke-linejoin="round"/>
<circle cx="1145" cy="305" r="11" fill="black"/>
<circle cx="1221" cy="316" r="11" fill="black"/>
<path d="M1156.5 389C1157 405.667 1160.4 440.8 1170 448L1139 458M1206 395C1208.83 414 1211.7 455 1200.5 467L1232.5 477.5" stroke="black" stroke-width="10" stroke-linecap="round" stroke-linejoin="round"/>
<ellipse cx="1065" cy="686.5" rx="7" ry="15.5" fill="black"/>
<ellipse cx="1096" cy="680.5" rx="7" ry="15.5" fill="black"/>
<path d="M1122.27 723.601C1124.82 723.033 1127.42 724.563 1127.68 727.165C1128.03 730.627 1127.71 734.157 1126.71 737.634C1125.28 742.659 1122.47 747.455 1118.5 751.686C1114.53 755.916 1109.48 759.48 1103.71 762.129C1097.94 764.778 1091.58 766.447 1085.09 767.021C1078.6 767.595 1072.12 767.059 1066.11 765.451C1060.11 763.843 1054.71 761.202 1050.31 757.711C1045.9 754.221 1042.6 749.965 1040.61 745.242C1039.2 741.857 1038.48 738.29 1038.49 734.673C1038.49 732.206 1040.7 730.444 1043.16 730.552V730.552C1046.06 730.678 1048.15 733.33 1048.43 736.218C1048.63 738.327 1049.15 740.398 1049.99 742.389C1051.53 746.072 1054.11 749.39 1057.55 752.111C1060.98 754.833 1065.18 756.892 1069.87 758.146C1074.55 759.399 1079.6 759.817 1084.66 759.37C1089.73 758.922 1094.68 757.621 1099.18 755.556C1103.68 753.491 1107.61 750.712 1110.71 747.413C1113.81 744.115 1115.99 740.376 1117.11 736.458C1117.74 734.266 1118.03 732.048 1117.97 729.851C1117.9 727.03 1119.51 724.213 1122.27 723.601V723.601Z" fill="black"/>
<path d="M941 838L1008 590M941 838C996 813 1145 838 1213 822C1201 809.2 1179.33 667.333 1170 598M941 838L872 798L983 575M1008 590L1170 598M1008 590L983 575M1170 598L1152 584L983 575" stroke="black" stroke-width="10" stroke-linecap="round" stroke-linejoin="round"/>
<path d="M1007 589L985.5 575.5L1151 583L1166.5 596.5L1007 589Z" fill="black"/>
<path d="M1033.32 579.452C1033.2 561.935 1037.63 545.105 1045.62 532.665C1053.61 520.224 1064.52 513.193 1075.94 513.116C1087.36 513.04 1098.36 519.925 1106.52 532.257C1114.68 544.589 1119.33 561.358 1119.45 578.875L1109.88 578.939C1109.79 565.313 1106.17 552.27 1099.82 542.677C1093.48 533.085 1084.92 527.729 1076.04 527.789C1067.15 527.848 1058.67 533.318 1052.45 542.994C1046.24 552.671 1042.8 565.762 1042.89 579.388L1033.32 579.452Z" fill="black"/>
<path d="M960.5 890.5H1015C1010.67 875.5 1003.3 842 1008.5 828" stroke="black" stroke-width="11" stroke-linecap="round"/>
<path d="M1127.5 828.5C1129.83 845.5 1131.9 884.8 1121.5 906C1131.5 906 1154.9 906 1168.5 906" stroke="black" stroke-width="11" stroke-linecap="round"/>
<path d="M1321 990.5L1326.34 991.81C1327.06 988.88 1325.28 985.917 1322.36 985.171C1319.44 984.424 1316.46 986.173 1315.68 989.09L1321 990.5ZM1361.06 1017.87C1363.75 1016.46 1364.78 1013.13 1363.37 1010.44C1361.96 1007.75 1358.63 1006.72 1355.94 1008.13L1361.06 1017.87ZM1326 1085L1331.45 1085.74L1326 1085ZM1518 1099.5L1520.04 1104.61L1518 1099.5ZM1467.5 939.999L1462.23 941.584L1462.27 941.716L1462.32 941.845L1467.5 939.999ZM1384.19 1015.21C1381.41 1014 1378.17 1015.27 1376.96 1018.06C1375.74 1020.85 1377.02 1024.09 1379.81 1025.3L1384.19 1015.21ZM1290 1031.5L1292.8 1036.23L1290 1031.5ZM1300 927.5L1299.36 932.963L1303.39 933.432L1305.03 929.729L1300 927.5ZM1368.5 897L1366.04 901.92L1369.36 903.578L1372.14 901.124L1368.5 897ZM1315.68 989.09C1314.12 994.996 1313.13 1002.59 1314.43 1009.4C1315.76 1016.39 1319.78 1023.44 1328.71 1025.6L1331.29 1014.91C1328 1014.11 1326.07 1011.76 1325.23 1007.34C1324.36 1002.74 1324.98 996.935 1326.32 991.91L1315.68 989.09ZM1328.71 1025.6C1336.76 1027.54 1347.39 1025.04 1361.06 1017.87L1355.94 1008.13C1342.89 1014.98 1335.31 1015.88 1331.29 1014.91L1328.71 1025.6ZM1324.71 1021.76C1326.5 1028.02 1326.59 1035.98 1325.59 1046.51C1324.58 1057.05 1322.58 1069.29 1320.55 1084.26L1331.45 1085.74C1333.42 1071.21 1335.5 1058.37 1336.54 1047.56C1337.57 1036.73 1337.67 1027.06 1335.29 1018.74L1324.71 1021.76ZM1320.55 1084.26C1318.82 1097.02 1326.64 1106.81 1338.23 1113.38C1349.79 1119.93 1366.25 1124.08 1385.24 1125.81C1423.33 1129.28 1473.5 1123.17 1520.04 1104.61L1515.96 1094.39C1471 1112.33 1422.57 1118.16 1386.23 1114.85C1368.01 1113.19 1353.3 1109.27 1343.65 1103.81C1334.02 1098.35 1330.58 1092.17 1331.45 1085.74L1320.55 1084.26ZM1520.04 1104.61C1544.5 1094.85 1559.28 1077.23 1566.01 1056.8C1572.69 1036.53 1571.39 1013.77 1564.38 993.378C1557.36 972.995 1544.48 954.51 1527.42 942.988C1510.22 931.369 1488.87 926.944 1465.73 934.79L1469.27 945.207C1488.88 938.554 1506.67 942.248 1521.27 952.104C1536.01 962.06 1547.59 978.409 1553.97 996.956C1560.35 1015.5 1561.37 1035.76 1555.57 1053.36C1549.82 1070.8 1537.31 1085.87 1515.96 1094.39L1520.04 1104.61ZM1462.32 941.845C1469.51 962.033 1466.51 988.047 1453.56 1005.01C1447.19 1013.36 1438.44 1019.5 1427.21 1021.84C1415.94 1024.19 1401.67 1022.81 1384.19 1015.21L1379.81 1025.3C1398.83 1033.57 1415.44 1035.53 1429.46 1032.61C1443.53 1029.67 1454.5 1021.92 1462.31 1011.68C1477.74 991.451 1480.99 961.465 1472.68 938.153L1462.32 941.845ZM1315.66 989.19C1313.72 997.08 1305.15 1016.14 1287.2 1026.77L1292.8 1036.23C1314.05 1023.66 1323.94 1001.59 1326.34 991.81L1315.66 989.19ZM1287.2 1026.77C1281.73 1030 1272.22 1033.57 1260.57 1036.63C1249.03 1039.66 1235.81 1042.08 1223.14 1043.21C1210.39 1044.34 1198.57 1044.13 1189.69 1042.1C1180.51 1040 1176.36 1036.48 1175.31 1032.58L1164.69 1035.42C1167.39 1045.52 1177.05 1050.5 1187.24 1052.82C1197.74 1055.22 1210.86 1055.34 1224.11 1054.17C1237.44 1052.98 1251.28 1050.44 1263.37 1047.27C1275.34 1044.12 1286.02 1040.25 1292.8 1036.23L1287.2 1026.77ZM1175.31 1032.58C1173.49 1025.79 1172.83 1021.04 1172.93 1017.75C1173.03 1014.54 1173.83 1013.22 1174.45 1012.57C1175.16 1011.84 1176.52 1011.08 1179.37 1010.59C1182.22 1010.1 1185.85 1010 1190.5 1010V999C1185.9 999 1181.4 999.084 1177.51 999.751C1173.61 1000.42 1169.59 1001.78 1166.55 1004.93C1163.42 1008.16 1162.09 1012.46 1161.94 1017.41C1161.79 1022.27 1162.76 1028.21 1164.69 1035.42L1175.31 1032.58ZM1190.5 1010C1199.29 1010 1216.95 1011.04 1233.31 1007.23C1249.88 1003.37 1266.65 994.161 1271.84 972.8L1261.16 970.2C1257.35 985.839 1245.37 993.128 1230.81 996.518C1216.05 999.958 1200.21 999 1190.5 999V1010ZM1271.84 972.8C1274.13 963.4 1275.51 955.611 1276.71 949.596C1277.95 943.342 1278.93 939.436 1280.27 936.826C1281.37 934.67 1282.6 933.62 1284.85 932.994C1287.6 932.228 1291.97 932.101 1299.36 932.963L1300.64 922.037C1293.03 921.149 1286.84 921.022 1281.9 922.397C1276.46 923.912 1272.88 927.143 1270.48 931.799C1268.32 936.002 1267.11 941.439 1265.92 947.451C1264.68 953.701 1263.37 961.1 1261.16 970.2L1271.84 972.8ZM1305.03 929.729C1308.65 921.561 1316.19 910.399 1326.71 903.469C1336.9 896.761 1349.98 893.891 1366.04 901.92L1370.96 892.081C1351.02 882.11 1333.77 885.656 1320.66 894.281C1307.9 902.685 1299.18 915.773 1294.97 925.271L1305.03 929.729ZM1372.14 901.124C1382.88 891.648 1399.83 882.943 1416.35 885.533C1432.21 888.019 1450.14 901.402 1462.23 941.584L1472.77 938.414C1460.06 896.194 1439.83 878.079 1418.05 874.665C1396.94 871.355 1376.79 882.352 1364.86 892.876L1372.14 901.124Z" fill="black"/>
<ellipse cx="1359" cy="965.5" rx="11" ry="13.5" fill="black"/>
<path d="M1382 1019.5C1387.5 1013.67 1395.2 996.3 1382 973.5M1366.5 1118L1374 1172C1364.33 1170.33 1342.3 1168 1331.5 1172M1497.5 1108.5L1504 1154C1490.83 1153.5 1462.6 1154.2 1455 1161" stroke="black" stroke-width="11" stroke-linecap="round"/>
<path d="M491.781 877.219L486.46 916.012C496.952 915.003 519.161 914.804 524.055 922.084" stroke="black" stroke-width="11" stroke-linecap="round"/>
<path d="M518.459 794.595C525.444 797.474 534.185 800.468 543.278 802.684M543.278 802.684C569.568 809.09 598.799 808.995 597.034 780.84C594.065 733.472 502.017 727.715 495.682 726.26C489.347 724.804 471.79 745.396 477.525 785.19C482.113 817.026 446.893 809.105 428.709 801.165C406.784 825.883 381.822 874.837 457.373 872.905C551.812 870.49 534.749 855.439 543.278 802.684Z" stroke="black" stroke-width="11" stroke-linecap="round"/>
<path d="M434.527 623.456L439.849 584.662C429.356 585.672 407.148 585.871 402.254 578.59" stroke="black" stroke-width="11" stroke-linecap="round"/>
<path d="M407.85 706.08C400.865 703.2 392.123 700.207 383.03 697.991M383.03 697.991C356.74 691.584 327.51 691.679 329.275 719.835C332.244 767.202 424.292 772.959 430.627 774.415C436.962 775.87 454.518 755.278 448.783 715.484C444.195 683.648 479.416 691.569 497.6 699.509C519.525 674.791 544.487 625.837 468.936 627.769C374.497 630.184 391.56 645.235 383.03 697.991Z" stroke="black" stroke-width="11" stroke-linecap="round"/>
<circle cx="391.122" cy="731.992" r="11" transform="rotate(-167.061 391.122 731.992)" fill="black"/>
<circle cx="535.186" cy="768.682" r="11" transform="rotate(12.9391 535.186 768.682)" fill="black"/>
<ellipse cx="856" cy="1013.5" rx="12" ry="15.5" fill="black"/>
<ellipse cx="966" cy="1011.5" rx="12" ry="15.5" fill="black"/>
<path d="M966 1124.5L970 1181.5C982.333 1178.17 1008.2 1172.2 1013 1175M840.5 1124.5L844 1185C837 1182.83 820.6 1179.8 811 1185" stroke="black" stroke-width="11" stroke-linecap="round"/>
<path d="M766 1061V1115C779.6 1128.2 882 1123.5 931.5 1119.5C939.902 1118.86 931.957 992.336 928.9 920.787C928.667 915.333 924.122 911.098 918.664 911.22L779.909 914.323C775.386 914.424 771.641 917.868 771.161 922.366L768 952" stroke="black" stroke-width="11" stroke-linecap="round"/>
<path d="M723 954C710.6 954.4 714.5 1022.17 718 1056C723.5 1068 879.5 1056 896 1056C912.5 1056 904.5 978.5 902.5 961.5C900.5 944.5 738.5 953.5 723 954Z" stroke="black" stroke-width="11" stroke-linecap="round"/>
<path d="M321.5 353.5L232.5 323.5C219.847 338.454 215.372 422.598 214.582 467.858C214.524 471.163 216.794 474.018 220.025 474.716C246.096 480.346 291.968 488.848 303.5 485.5C315.9 481.9 320.667 396 321.5 353.5Z" stroke="black" stroke-width="11" stroke-linecap="round"/>
<path d="M343.5 360L206 314L303.5 260L343.5 360Z" stroke="black" stroke-width="11" stroke-linecap="round"/>
<circle cx="251.5" cy="363" r="9" fill="black"/>
<circle cx="292.5" cy="369" r="9" fill="black"/>
<path d="M220.5 373L183.114 421.464C181.529 423.518 182.289 426.514 184.661 427.564L215 441M320.5 386L342.345 454.789C343.164 457.369 341.239 460 338.533 460H314M245 481.5L250 526.5C238.333 525.333 215 523.7 215 526.5M277.5 485.5V522L307.5 526.5" stroke="black" stroke-width="11" stroke-linecap="round"/>
<path d="M542.026 1044.77L362.44 1030.44L350.287 1130.21L544.388 1145.29L542.026 1044.77Z" stroke="black" stroke-width="11" stroke-linecap="round" stroke-linejoin="round" stroke-dasharray="22 22"/>
<path d="M365.342 1184.43L401.622 1184.31L399.049 1135.14M493.4 1142.1L477.561 1193.56L510.815 1197.61" stroke="black" stroke-width="11" stroke-linecap="round" stroke-linejoin="round"/>
<circle cx="391.682" cy="1079.84" r="11" transform="rotate(6.94518 391.682 1079.84)" fill="black"/>
<circle cx="499.882" cy="1093.02" r="11" transform="rotate(6.94518 499.882 1093.02)" fill="black"/>
<path d="M420.907 1104.56C435.403 1113.2 444.627 1114 462.599 1109.64" stroke="black" stroke-width="11" stroke-linecap="round" stroke-linejoin="round"/>
<path d="M1393.5 639.5L1422 660.775M1429 666L1422 573M1429 666L1422 660.775M1429 666L1436.5 656.864M1456.5 632.5L1436.5 656.864M1422 573V660.775M1422 573L1436.5 656.864" stroke="black" stroke-width="11" stroke-linecap="round" stroke-linejoin="round"/>
<path d="M1380.5 686.5C1395.17 690.167 1430.1 696.4 1452.5 692C1474.9 687.6 1482.5 678.5 1483.5 674.5M1487 653C1496.5 660.333 1515.5 671 1515.5 682.5C1515.5 694 1504.83 694.333 1499.5 696.5M1377 655.5C1363 660.167 1337.4 676.7 1347 705.5" stroke="black" stroke-width="11" stroke-linecap="round"/>
<path d="M1434 758.5C1397.2 763.7 1388.33 741 1388.5 729C1388.5 729 1375.5 729 1339.5 725.5C1308 722.438 1298.5 636.5 1322 552.5C1345.5 468.5 1429.99 485 1450.5 485C1468 485 1518.5 510 1543 617C1562.6 702.6 1512.5 725 1485 725.5C1483.33 734.333 1470.8 753.3 1434 758.5Z" stroke="black" stroke-width="11" stroke-linecap="round"/>
<path d="M1335 597C1346 589 1379.9 588 1389.5 592" stroke="black" stroke-width="21" stroke-linecap="round"/>
<path d="M1456.78 590.826C1468.46 583.845 1502.31 585.89 1511.51 590.735" stroke="black" stroke-width="21" stroke-linecap="round"/>
<path d="M1347 624.964C1351.17 618.298 1364.2 608.264 1383 621.464" stroke="black" stroke-width="11" stroke-linecap="round"/>
<path d="M1506 619.964C1501.83 613.298 1488.8 603.264 1470 616.464" stroke="black" stroke-width="11" stroke-linecap="round"/>
<path d="M1277.5 621C1263.1 669.4 1291.83 661.5 1308 651.5C1311.5 627 1315 563.5 1328.5 537.5C1342.94 509.69 1370.83 494.333 1387.5 490.5C1395.33 495.667 1413.6 506.7 1424 509.5C1434.4 512.3 1450.33 495 1457 486C1515.8 508.591 1540.5 588.08 1545.5 625C1547.17 624.5 1551.8 623 1557 621C1562.2 619 1553.83 595.167 1549 583.5C1554.83 579.167 1563 561.9 1549 527.5C1535 493.1 1507.5 485.5 1495.5 486C1493.83 485 1486.4 477.2 1470 454C1453.6 430.8 1408.17 447.667 1387.5 459C1357.5 448 1335.5 478.5 1335.5 486C1335.5 493.5 1308 517 1300.5 517.5C1294.5 517.9 1285.67 547 1282 561.5C1265.2 577.9 1272 608 1277.5 621Z" fill="black"/>
<path d="M1346 785.5C1342.96 785.5 1340.5 787.962 1340.5 791C1340.5 794.038 1342.96 796.5 1346 796.5V785.5ZM1377 791V796.5H1383.53L1382.42 790.067L1377 791ZM1371.75 728.067L1370.82 722.647L1359.97 724.513L1360.91 729.933L1371.75 728.067ZM1346 796.5H1377V785.5H1346V796.5ZM1382.42 790.067L1371.75 728.067L1360.91 729.933L1371.58 791.933L1382.42 790.067Z" fill="black"/>
<path d="M1499.5 724L1496 775.5H1537.5" stroke="black" stroke-width="11" stroke-linecap="round"/>
</svg>