<svg width="1" height="1" viewBox="0 0 1 1" fill="none" xmlns="http://www.w3.org/2000/svg">
 <defs>
    <clipPath id="containerClipHome" clipPathUnits="objectBoundingBox">
<path fill-rule="evenodd" clip-rule="evenodd" d="M0.957656 0.00928662L0.957614 0.00929129C0.955896 0.00866635 0.953754 0.00826787 0.951464 0.00815333C0.950852 0.00813515 0.950236 0.00813515 0.949623 0.00815333H0.948629H0.94669L0.93884 0.00821328L0.908144 0.00843829C0.907101 0.0084034 0.906053 0.00840501 0.90501 0.00844313H0.905908L0.866748 0.00874293C0.865343 0.00827713 0.863677 0.00796444 0.861902 0.00783356C0.861229 0.00778806 0.860548 0.00776134 0.859867 0.00775361H0.858436H0.856304L0.847702 0.0079135L0.839123 0.00808338L0.834834 0.00816333H0.833792L0.832751 0.00800344C0.831236 0.00777669 0.829619 0.00769048 0.828015 0.00775094C0.826411 0.00781139 0.824859 0.00801703 0.823469 0.0083532L0.745077 0.00986214C0.743284 0.00989364 0.741531 0.010099 0.739965 0.0104617C0.739571 0.0105522 0.73919 0.0106523 0.738827 0.0107615C0.738597 0.010829 0.738379 0.0109024 0.738172 0.0109814H0.680522C0.68037 0.0107977 0.680175 0.0106203 0.679941 0.0104517C0.679681 0.0102594 0.679399 0.0100726 0.679094 0.00989211C0.678465 0.00952176 0.677723 0.00918596 0.676887 0.00889282C0.675177 0.00830252 0.673107 0.00791561 0.670902 0.0077736L0.669739 0.00771363H0.668867L0.667147 0.0076337L0.663658 0.00748379L0.649724 0.00685424L0.63579 0.00623466C0.634926 0.00620462 0.634018 0.00614879 0.633024 0.00608773C0.631705 0.00600659 0.630235 0.00591624 0.628521 0.00586492C0.626993 0.00582934 0.62546 0.0058494 0.623941 0.00592488C0.622511 0.00600482 0.621227 0.00610475 0.620039 0.00620468L0.616816 0.0064645L0.61335 0.00670434L0.606445 0.00717401L0.592609 0.00811336L0.570266 0.0096323L0.569201 0.00902273C0.567423 0.00817499 0.565024 0.00758915 0.562367 0.00735389C0.562006 0.00735389 0.561638 0.00732212 0.561266 0.00729005C0.561012 0.00726816 0.560756 0.00724612 0.5605 0.00723397H0.55941L0.557254 0.00716402L0.552965 0.00702412L0.54429 0.00674432C0.541221 0.00667947 0.538149 0.00667947 0.53508 0.00674432L0.500695 0.00731391L0.466285 0.00787352L0.449081 0.00815333L0.440478 0.00829323L0.436189 0.00836319H0.435098H0.434348H0.433281C0.432542 0.00841456 0.431819 0.00849831 0.431125 0.00861301L0.418548 0.00837318V0.00817332V0.0079135V0.00754375C0.418432 0.00701553 0.41813 0.0064971 0.417652 0.00600483C0.416662 0.00494057 0.414791 0.00405536 0.412368 0.00350656C0.411775 0.00336845 0.41114 0.00326423 0.410478 0.00319678C0.409836 0.00311074 0.409167 0.00306362 0.408492 0.00305688H0.406432C0.406125 0.00304819 0.405818 0.00304819 0.405511 0.00305688H0.405002L0.400883 0.00322676L0.38438 0.00393626L0.35203 0.0053153L0.321303 0.00372641L0.305625 0.00291697L0.297774 0.00251724L0.295812 0.00241732H0.294818H0.294091C0.293753 0.00240689 0.293412 0.00240689 0.293073 0.00241732C0.291594 0.00241817 0.290133 0.00254755 0.288784 0.00279705C0.287486 0.00303614 0.286309 0.00337532 0.28532 0.00379635L0.276886 0.00413613L0.276063 0.00372641C0.274741 0.00311666 0.273076 0.00264999 0.271216 0.00236735C0.270363 0.00223054 0.269477 0.00213009 0.268575 0.00206757L0.267557 0.00200761H0.266781L0.263753 0.00184772L0.251636 0.00124815L0.226919 1.89877e-05C0.225242 -4.41832e-05 0.223554 5.0751e-05 0.221978 0.000296596C0.220404 0.000542441 0.218986 0.000932751 0.217831 0.001438C0.216699 0.00190983 0.215796 0.00246595 0.215167 0.00307685L0.214996 0.00326672L0.195223 0.00436596L0.182599 0.00506548L0.176297 0.00541524L0.173196 0.00553515L0.171621 0.00562508H0.170821H0.170434L0.0878016 0.00333668C0.0857447 0.00329703 0.0836996 0.00348566 0.0818797 0.00388289C0.0800597 0.00428012 0.0785315 0.0048714 0.0774544 0.00559511C0.0769717 0.00591251 0.0765581 0.00624691 0.0762185 0.00659441C0.0759866 0.00686446 0.0758082 0.00714185 0.0756854 0.00742384H0.0623143L0.0415428 0.00659441C0.0411516 0.00659297 0.0404 0.00657993 0.0394549 0.00656355C0.0362957 0.00650876 0.0309758 0.00641651 0.0297411 0.00659441C0.0290942 0.00669866 0.0284802 0.00675045 0.0279025 0.0067992C0.026769 0.00689483 0.0257744 0.00697873 0.024943 0.00742384C0.0240141 0.00792263 0.0256756 0.00925439 0.0272277 0.0104984C0.0274323 0.0106624 0.0276351 0.0108249 0.0278296 0.0109838C0.0273138 0.0120196 0.0270123 0.0131798 0.0269497 0.0143736C0.0266135 0.0144282 0.0262804 0.0145071 0.0259528 0.01461C0.0248133 0.0149881 0.0237878 0.015724 0.0229909 0.0167355L0.0228955 0.0168613L0.0225267 0.0168615C0.0222672 0.0168616 0.0220212 0.0168617 0.0217753 0.0167832C0.0212658 0.016752 0.0207552 0.0167522 0.0202457 0.0167839C0.0192219 0.0168711 0.0182123 0.0171095 0.0172414 0.0174932C0.0160823 0.0179409 0.0150209 0.0186711 0.0141292 0.0196343C0.0130553 0.0208151 0.0123712 0.0223894 0.0121939 0.0240878C0.0121694 0.0244859 0.0121698 0.0248856 0.012195 0.0252836L0.0121956 0.0259287L0.0121968 0.0271874L0.0122836 0.0322852L0.0126099 0.0522153C0.0125628 0.0528924 0.0125657 0.0535729 0.0126184 0.0542496L0.0126179 0.0536674L0.0130516 0.0790933C0.0124158 0.0800059 0.0119894 0.0810882 0.0118116 0.0822405C0.0117498 0.0826778 0.0117137 0.0831193 0.0117036 0.0835622L0.0117044 0.0844906L0.0117057 0.0858752L0.0119295 0.0914606L0.012167 0.0970303L0.0122789 0.0998151L0.0122795 0.100492L0.0120616 0.101168C0.0117526 0.102151 0.0116358 0.103201 0.0117194 0.104243C0.011803 0.105285 0.012085 0.106293 0.0125453 0.107194L0.0146557 0.158092C0.0146998 0.159258 0.0149817 0.160395 0.0154783 0.161412C0.0156022 0.161667 0.0157393 0.161915 0.0158888 0.162151C0.0159811 0.162301 0.0160816 0.162442 0.0161897 0.162576L0.0162249 0.200007C0.0159739 0.200106 0.0157317 0.200233 0.0155013 0.200385C0.0152387 0.200554 0.0149835 0.200737 0.014737 0.200936C0.0142312 0.201345 0.0137727 0.201826 0.0133725 0.202369C0.0125667 0.20348 0.0120392 0.204824 0.0118464 0.206256L0.0117651 0.207011L0.0117657 0.207577L0.0116575 0.208694L0.0114547 0.21096L0.0106027 0.220007L0.00976443 0.229055C0.00972389 0.229615 0.00964814 0.230205 0.00956529 0.230851C0.0094552 0.231707 0.0093326 0.232662 0.00926351 0.233776C0.00921581 0.234768 0.00924416 0.235763 0.00934825 0.236748C0.0094584 0.237677 0.00959576 0.238511 0.00973308 0.239282L0.0100902 0.241374L0.0104201 0.243624L0.0110663 0.248108L0.0123586 0.257091L0.0144484 0.271597L0.0136159 0.27229C0.0124583 0.273445 0.011659 0.275002 0.0113391 0.276727C0.0113393 0.276962 0.0112961 0.277201 0.0112525 0.277443C0.0112227 0.277607 0.0111928 0.277774 0.0111763 0.27794L0.011177 0.278647L0.0110827 0.280048L0.0108941 0.282833L0.010517 0.288466C0.0104302 0.290457 0.0104321 0.292453 0.0105226 0.294445L0.0113221 0.316771L0.012108 0.339112L0.012501 0.350284L0.0126975 0.355869L0.0127957 0.358653L0.0127964 0.359362L0.0127968 0.35985L0.0127975 0.360542C0.0128682 0.361021 0.0129831 0.361491 0.0131403 0.361942L0.0128202 0.370108H0.012547H0.0121919H0.0116865C0.0109646 0.370184 0.0102562 0.370381 0.00958363 0.370691C0.00812959 0.371334 0.00692084 0.37255 0.00617222 0.374123C0.00598379 0.374508 0.00584174 0.374921 0.00574995 0.375351C0.00563274 0.375768 0.00556873 0.376202 0.00555995 0.37664L0.00556121 0.377978C0.00554952 0.378177 0.0055497 0.378377 0.00556177 0.378576L0.00556209 0.378907L0.00579679 0.381581L0.00677662 0.392296L0.0086813 0.4133L0.00652836 0.433251L0.00543161 0.443431L0.00489005 0.448529L0.00475468 0.449804L0.00475529 0.450449L0.00475574 0.450921C0.00474169 0.451141 0.00474189 0.451362 0.00475636 0.451582C0.00475841 0.452542 0.00493614 0.453491 0.00527799 0.454367C0.00560557 0.455209 0.00606989 0.455973 0.00664596 0.456616L0.00711553 0.462091L0.00655602 0.462626C0.00572342 0.463485 0.0050866 0.464565 0.00470142 0.465774C0.00451495 0.466328 0.00437818 0.466903 0.00429327 0.467489L0.00421194 0.468149L0.00421241 0.468653L0.00399572 0.47062L0.00318363 0.478487L0.00151872 0.494537C0.0014334 0.495625 0.0015642 0.496722 0.00190118 0.497744C0.00223816 0.498767 0.00277252 0.499686 0.00346379 0.500436C0.0041094 0.50117 0.00487005 0.501758 0.00570542 0.502165L0.00596505 0.502276L0.00747959 0.515114L0.0084434 0.523311L0.00892532 0.527402L0.0090911 0.529416L0.00921499 0.530438L0.00921548 0.530958L0.00921572 0.531209L0.00613842 0.584863C0.00608548 0.586198 0.00634455 0.587526 0.0068886 0.588707C0.00743265 0.58989 0.00824176 0.590881 0.00923158 0.59158C0.00965702 0.591887 0.0101048 0.592151 0.0105697 0.592369L0.00912597 0.61217L0.00871621 0.61257C0.00820202 0.613139 0.00774453 0.613759 0.00735035 0.614418C0.0066293 0.615692 0.0061651 0.617098 0.00598449 0.618555C0.00568818 0.620766 0.00604452 0.623015 0.00700888 0.625022C0.00716297 0.625358 0.00733628 0.625685 0.00752791 0.626001L0.00782842 0.62647L0.00804694 0.626774L0.00857961 0.641294L0.00888011 0.649567L0.0089484 0.651621V0.65271C0.00898376 0.65337 0.00911254 0.654019 0.00933084 0.654641C0.00978422 0.655941 0.0106297 0.657064 0.0117484 0.657854C0.0120059 0.658037 0.0122751 0.658203 0.0125543 0.658351V0.658722C0.0124826 0.659318 0.0124461 0.659916 0.012445 0.660515V0.660143L0.0119533 0.670899L0.0117074 0.676277V0.677655V0.678331V0.678483V0.678648L0.0116118 0.679352L0.0115026 0.679421C0.0102259 0.680338 0.00933827 0.681706 0.0090167 0.683254C0.00893425 0.683598 0.00888395 0.683949 0.00886645 0.684302V0.684813V0.698519L0.00856596 0.698587C0.006987 0.699041 0.00562973 0.700067 0.00475522 0.70147C0.00432556 0.702159 0.00402035 0.70292 0.00385375 0.703717L0.00371716 0.704779V0.705414L0.0030479 0.714956L0.0029113 0.715479C0.0028359 0.715857 0.00279476 0.716239 0.00278838 0.716624C0.00278838 0.719222 0.00258672 0.721892 0.00238543 0.724558C0.00229504 0.725755 0.00220473 0.72695 0.00213277 0.728138L0.0013269 0.739707L0.000534702 0.751291L0.000124961 0.757068L2.93393e-05 0.758516V0.759232C-9.77971e-06 0.759691 -9.77975e-06 0.760153 2.93391e-05 0.760612C0.000156714 0.761658 0.000546945 0.762655 0.00116301 0.763508C0.00131194 0.763717 0.00147631 0.763916 0.00165471 0.7641L0.0017913 0.764239V0.764473L0.00194155 0.764997C0.00205538 0.765364 0.00220166 0.765718 0.00237862 0.766058C0.00274862 0.766757 0.00324965 0.767375 0.00385375 0.767879V0.777614V0.784881C0.00386367 0.785103 0.00388649 0.785324 0.00392204 0.785543C0.00406359 0.786532 0.00442805 0.787476 0.00498741 0.788301C0.00558143 0.789182 0.00639056 0.789895 0.00733668 0.790369L0.0075279 0.790452L0.00765084 0.79918C0.0072234 0.799777 0.00690428 0.800444 0.00670839 0.801152C0.00653539 0.801786 0.00644809 0.80244 0.00644886 0.803096V0.866527L0.00623035 0.868554V0.869092V0.869272V0.869588C0.00620989 0.869809 0.00620989 0.87003 0.00623035 0.870251C0.00626707 0.870754 0.00636805 0.87125 0.00653081 0.871725V0.879875C0.00655568 0.880405 0.00662884 0.880931 0.00674935 0.881447C0.00701652 0.882474 0.00753013 0.883419 0.00824477 0.884198C0.0089594 0.884978 0.00985309 0.885567 0.0108469 0.885915C0.0117867 0.886258 0.0127868 0.886399 0.0137835 0.886329V0.890879C0.0138252 0.891688 0.0140151 0.892484 0.0143435 0.893223L0.014603 0.893762L0.0147943 0.894078V0.903345V0.908115V0.908419C0.014812 0.908613 0.0148393 0.908807 0.0148762 0.908998V0.909646L0.0147806 0.910956V0.911425L0.0144801 0.911645C0.0143417 0.911758 0.0142095 0.911878 0.014084 0.912004C0.0138098 0.912253 0.0135584 0.912524 0.0133328 0.912818C0.012408 0.914023 0.0119253 0.915514 0.0119669 0.917037L0.0128957 0.943113V0.944561V0.945498C0.0129105 0.946086 0.0129977 0.946669 0.0131552 0.947235C0.0134908 0.948457 0.0141691 0.949553 0.0151084 0.950394C0.0153667 0.950615 0.0156406 0.950819 0.0159279 0.951L0.016497 0.955722C0.0163847 0.955778 0.0163224 0.95584 0.0163224 0.955912C0.016304 0.956159 0.0164175 0.95644 0.0166196 0.956741L0.0167338 0.957688L0.0172391 0.96199L0.017321 0.962583L0.017485 0.963466C0.0176372 0.964073 0.0178571 0.96466 0.0181406 0.965217C0.0184451 0.965811 0.0188323 0.966351 0.0192877 0.966825V0.970562C0.0192552 0.970771 0.0192553 0.970979 0.0192877 0.971187V0.978024C0.0188366 0.978224 0.0184267 0.978442 0.018063 0.978673C0.0172121 0.979256 0.016658 0.979903 0.0164342 0.980575C0.0162107 0.981249 0.0163222 0.981934 0.0167623 0.982588C0.0172023 0.983242 0.0179614 0.983854 0.0189934 0.984384C0.0200253 0.984913 0.0213084 0.985351 0.0227641 0.985668C0.0234667 0.985799 0.0242179 0.985928 0.0249449 0.986038C0.0254966 0.986121 0.0260482 0.986153 0.0266103 0.986185L0.0267829 0.986195C0.0269047 0.986202 0.0270271 0.986209 0.0271501 0.986218L0.029743 0.986338L0.0397508 0.986788L0.0589913 0.987647C0.0604682 0.988023 0.0621186 0.988269 0.0638378 0.988367C0.0647585 0.988367 0.065122 0.988367 0.0655824 0.988427H0.0669879L0.0725372 0.988586L0.0836597 0.988906L0.0947824 0.989226H0.0964544C0.0973806 0.989241 0.0983081 0.989211 0.0992168 0.989136C0.101004 0.988969 0.102667 0.988626 0.104063 0.988137C0.105382 0.98768 0.106455 0.987115 0.107214 0.986478L0.110679 0.986328V0.987197H0.139491L0.153667 0.987627C0.154495 0.988108 0.155539 0.988519 0.156744 0.988837C0.157912 0.989138 0.159199 0.989352 0.160548 0.989466C0.161153 0.989522 0.161771 0.989556 0.162391 0.989566H0.187931H0.219966L0.343745 0.993324L0.344447 0.993623C0.345447 0.993999 0.346536 0.994334 0.347695 0.994622C0.349934 0.995149 0.352406 0.995489 0.354965 0.995621C0.358849 0.995839 0.362802 0.995577 0.36633 0.994872C0.36692 0.99476 0.367495 0.994632 0.368049 0.994492L0.368873 0.994273L0.369407 0.994112L0.394923 0.993722L0.409463 0.993503L0.413073 0.993453H0.414987C0.416146 0.993427 0.417288 0.993333 0.41838 0.993173C0.420664 0.992842 0.422638 0.992223 0.424026 0.991405C0.424349 0.991216 0.42464 0.991019 0.424898 0.990815H0.425552C0.426598 0.990868 0.42765 0.990894 0.428704 0.990895H0.428049L0.44695 0.991254L0.456401 0.991435H0.458824H0.460011H0.460278H0.460569L0.461805 0.991504L0.461926 0.991584C0.463536 0.992518 0.465943 0.993168 0.468662 0.993403C0.469266 0.993464 0.469883 0.9935 0.470503 0.993513H0.471401H0.495487L0.495609 0.993732C0.496404 0.994888 0.498208 0.995881 0.500672 0.996521C0.501885 0.996836 0.503221 0.997058 0.504624 0.99718L0.506488 0.997281H0.507603L0.524373 0.997771L0.525293 0.99787C0.525956 0.997925 0.526628 0.997955 0.527305 0.99796C0.531868 0.99796 0.53656 0.998107 0.541242 0.998255H0.541247L0.541272 0.998255C0.543367 0.998322 0.545459 0.998387 0.547539 0.99844L0.56787 0.999029L0.588224 0.999609L0.598377 0.999909L0.600922 0.999979H0.602181C0.602988 1.00001 0.603799 1.00001 0.604606 0.999979C0.606445 0.999886 0.608196 0.9996 0.609695 0.999149C0.610063 0.99904 0.610411 0.99892 0.610736 0.99879L0.610978 0.998689H0.61139L0.61231 0.998579C0.612954 0.998496 0.613579 0.998389 0.614177 0.99826C0.615402 0.997989 0.61649 0.997622 0.617376 0.99718H0.634484H0.647254C0.647644 0.997173 0.648031 0.997156 0.648417 0.99713C0.650156 0.997027 0.651813 0.996761 0.653263 0.996351C0.654813 0.995917 0.656066 0.995325 0.656898 0.994632L0.657043 0.994492L0.672383 0.994403C0.673431 0.994715 0.674603 0.994949 0.675847 0.995092C0.676962 0.995218 0.67811 0.995283 0.679264 0.995282H0.790733L0.794295 0.995442H0.795241H0.795555H0.796113C0.796346 0.995451 0.79658 0.995454 0.796813 0.995453C0.796968 0.995451 0.797122 0.995448 0.797276 0.995442C0.79816 0.995415 0.799031 0.995341 0.79987 0.995221H0.81419C0.81512 0.995203 0.816046 0.99515 0.816953 0.995062C0.818758 0.994867 0.820419 0.994491 0.821788 0.993968C0.823157 0.993445 0.824193 0.992792 0.824804 0.992064C0.825405 0.991377 0.825653 0.990644 0.825531 0.989916H0.833528C0.83495 0.989885 0.836347 0.989746 0.837647 0.989506L0.838592 0.989316L0.83915 0.989176H0.855433H0.863818H0.864352C0.864542 0.989168 0.864733 0.989159 0.864923 0.989147C0.865071 0.989138 0.865221 0.989128 0.86537 0.989116H0.866508L0.86881 0.989186H0.869634L0.870021 0.989406C0.870218 0.989507 0.870429 0.989604 0.870651 0.989695C0.871086 0.989897 0.871565 0.99008 0.872082 0.990246C0.874199 0.990922 0.876819 0.991276 0.879496 0.991245L0.925319 0.990565H0.927864H0.929512C0.930545 0.990554 0.93157 0.990491 0.932565 0.990375C0.934711 0.990129 0.936638 0.989633 0.938114 0.988946C0.938505 0.988758 0.938861 0.988557 0.939181 0.988347H0.954749H0.957717C0.957717 0.988347 0.962168 0.987976 0.964393 0.987388C0.965165 0.987183 0.966045 0.987036 0.966907 0.986922C0.967346 0.987359 0.967855 0.987743 0.96842 0.988059C0.969282 0.988508 0.97024 0.9888 0.971237 0.988918C0.972234 0.989036 0.973248 0.988977 0.974217 0.988745C0.975187 0.988513 0.976091 0.988112 0.976875 0.987568C0.97766 0.987024 0.978307 0.986348 0.978779 0.98558C0.97897 0.985209 0.979163 0.984814 0.979326 0.98443C0.97945 0.984139 0.979496 0.983848 0.979545 0.983551C0.979559 0.983457 0.979574 0.983363 0.979592 0.983267L0.97977 0.9819L0.980436 0.976622L0.981708 0.966475C0.982264 0.965696 0.982628 0.964826 0.982773 0.96392C0.982773 0.963434 0.982773 0.963242 0.982862 0.962999V0.962259L0.983099 0.959332L0.983573 0.953466L0.984046 0.9476V0.946718C0.98407 0.94623 0.984024 0.945741 0.983912 0.945262C0.983665 0.94432 0.983157 0.943443 0.982433 0.942706C0.981757 0.942011 0.98092 0.941445 0.979976 0.941045L0.979755 0.939217H0.981042V0.924023L0.981678 0.916547C0.98239 0.916111 0.982998 0.91556 0.983469 0.914925C0.983915 0.91431 0.984232 0.913629 0.984401 0.912918C0.984485 0.912599 0.984534 0.912274 0.984549 0.911947V0.898478V0.881584L0.990113 0.816309L0.990556 0.815938C0.991114 0.815411 0.99161 0.814837 0.992036 0.814225C0.992818 0.813044 0.99332 0.811741 0.993516 0.810392C0.993837 0.808344 0.993451 0.806259 0.992407 0.804399C0.992239 0.804087 0.992052 0.803784 0.991844 0.803491L0.991518 0.803057L0.991282 0.802776L0.990705 0.78932L0.990378 0.781652L0.990306 0.779747V0.778739C0.990267 0.778128 0.990128 0.777525 0.98989 0.776949C0.989399 0.775745 0.988484 0.774703 0.987272 0.773972C0.987154 0.7739 0.987034 0.773832 0.986913 0.773766C0.986823 0.773717 0.986731 0.77367 0.986639 0.773625C0.986559 0.773586 0.986479 0.773548 0.986399 0.773512V0.773166C0.986476 0.772615 0.986516 0.77206 0.986516 0.771505V0.771851L0.987049 0.761883L0.987316 0.756899V0.755621V0.754995V0.754854V0.7547L0.98742 0.754049L0.987539 0.753985C0.988921 0.753135 0.989883 0.751867 0.990231 0.750433C0.990321 0.750114 0.990375 0.749789 0.990393 0.749461V0.748989V0.736287L0.99072 0.736222C0.99243 0.735803 0.993901 0.734851 0.994847 0.733551C0.995313 0.732913 0.995644 0.732207 0.995823 0.731469L0.995972 0.730484V0.729897L0.996697 0.721053L0.996846 0.720568C0.996867 0.720479 0.996884 0.72039 0.996901 0.720301C0.99691 0.720248 0.996918 0.720196 0.996926 0.720144C0.996948 0.719993 0.996963 0.71984 0.996972 0.719687C0.996975 0.719627 0.996978 0.719567 0.996978 0.719507C0.996978 0.7171 0.997196 0.714627 0.997414 0.712158L0.997415 0.712156C0.997513 0.711046 0.997611 0.709938 0.997688 0.708837L0.998562 0.698115L0.99942 0.687381L0.999864 0.682026L0.999967 0.680684V0.68002C1.00001 0.679595 1.00001 0.679167 0.999967 0.678743C0.999829 0.677772 0.999407 0.676848 0.998739 0.676058C0.998577 0.675864 0.998399 0.67568 0.998206 0.675509L0.998058 0.675381V0.675164L0.997896 0.674678C0.997773 0.674339 0.997614 0.674009 0.997423 0.673694C0.997021 0.673048 0.996479 0.672475 0.995823 0.672008V0.662986V0.65625C0.995813 0.656045 0.995789 0.655841 0.995751 0.655637C0.995596 0.65472 0.995202 0.653847 0.994596 0.653082C0.993952 0.652265 0.993076 0.651604 0.992051 0.651165L0.991844 0.651088L0.991711 0.642999C0.992174 0.642447 0.992519 0.641829 0.992731 0.641171C0.992918 0.640585 0.993013 0.639979 0.993013 0.63937V0.580586L0.993249 0.578707V0.578209V0.578043V0.57775C0.993272 0.577545 0.993272 0.57734 0.993249 0.577136C0.993209 0.576669 0.993101 0.57621 0.992924 0.575769V0.568216C0.992898 0.567725 0.992818 0.567237 0.992687 0.56676C0.992398 0.565808 0.991841 0.564932 0.991067 0.564209C0.990294 0.563488 0.989325 0.562941 0.988248 0.562619C0.98723 0.562302 0.986147 0.56217 0.985067 0.562236V0.558018C0.985025 0.557334 0.98485 0.55666 0.98455 0.556027V0.553868L0.985561 0.53768C0.986559 0.536565 0.98708 0.535185 0.987034 0.533777L0.986543 0.521963L0.990114 0.464803L0.990558 0.464298C0.991114 0.463577 0.99161 0.462795 0.992037 0.461961C0.992819 0.46035 0.99332 0.458571 0.993516 0.45673C0.993838 0.453935 0.993451 0.45109 0.992407 0.448552C0.99224 0.448127 0.992052 0.447713 0.991844 0.447315L0.991519 0.446721L0.991282 0.446338L0.990705 0.427978L0.99038 0.417516L0.990306 0.414918V0.41354C0.990267 0.412707 0.990128 0.411885 0.989892 0.411099C0.989401 0.409456 0.988485 0.408035 0.987273 0.407036C0.986994 0.406805 0.986702 0.406595 0.986399 0.406409V0.405938C0.986478 0.405185 0.986516 0.404429 0.986518 0.403671V0.404142L0.98705 0.390542L0.987318 0.383741V0.381998V0.381143V0.380952V0.380742L0.98742 0.379854L0.987539 0.379767C0.988921 0.378607 0.989884 0.376876 0.990231 0.374919C0.990322 0.374484 0.990375 0.37404 0.990395 0.373593V0.372949V0.355617L0.99072 0.35553C0.99243 0.354957 0.993901 0.353658 0.994849 0.351886C0.995315 0.351013 0.995645 0.350051 0.995825 0.349043L0.995973 0.3477V0.346899L0.996699 0.334833L0.996846 0.33417C0.996927 0.333693 0.996972 0.333209 0.996979 0.332722C0.996979 0.329439 0.997197 0.326063 0.997415 0.322693V0.32269C0.997513 0.321177 0.997611 0.319665 0.99769 0.318163L0.998562 0.303534L0.999421 0.288888L0.999865 0.281582L0.999969 0.279751V0.278845C1.00001 0.278265 1.00001 0.277681 0.999969 0.277101C0.999831 0.275778 0.999408 0.274517 0.99874 0.27344C0.998579 0.273174 0.998401 0.272924 0.998208 0.272689L0.998059 0.272515V0.272218L0.997896 0.271556C0.997773 0.271093 0.997614 0.270643 0.997423 0.270213C0.997022 0.269332 0.996479 0.26855 0.995825 0.267912V0.255602V0.246413C0.995815 0.246132 0.995789 0.245854 0.995751 0.245576C0.995598 0.244325 0.995203 0.243132 0.994596 0.242089C0.993954 0.240974 0.993077 0.240073 0.992052 0.239474L0.991844 0.239369L0.991712 0.228332C0.992175 0.227578 0.992521 0.226734 0.992733 0.225839C0.99292 0.225037 0.993015 0.22421 0.993013 0.22338V0.143172L0.993251 0.140609V0.13993V0.139702V0.139302C0.993273 0.139023 0.993273 0.138743 0.993251 0.138465C0.993211 0.137829 0.993101 0.137202 0.992924 0.136599V0.126295C0.992898 0.125624 0.992819 0.124959 0.992688 0.124307C0.992399 0.123008 0.991843 0.121813 0.991068 0.120828C0.990294 0.119843 0.989326 0.119097 0.988249 0.118657C0.987232 0.118224 0.986147 0.118046 0.985068 0.118134V0.11238C0.985022 0.111357 0.984817 0.110352 0.984461 0.109416L0.98418 0.108736L0.983973 0.108335V0.0966177V0.0905848V0.0902012C0.983954 0.0899555 0.983924 0.089711 0.983884 0.0894688V0.0886494L0.983988 0.0869929V0.0864001L0.984313 0.086121C0.984463 0.0859793 0.984607 0.085828 0.984742 0.0856677C0.98504 0.0853545 0.985312 0.0850102 0.985556 0.084639C0.986558 0.0831156 0.987082 0.0812302 0.987036 0.0793035L0.98603 0.0463314V0.0445007V0.0433149C0.986013 0.0425717 0.98592 0.0418338 0.985748 0.041118C0.985384 0.0395742 0.98465 0.0381875 0.983632 0.0371251C0.983353 0.0368444 0.983056 0.0365879 0.982745 0.0363578V0.0251555V0.0230203C0.982745 0.0230203 0.982196 0.0198176 0.981325 0.0182162C0.980761 0.0171806 0.980488 0.0158715 0.980283 0.0148855C0.980171 0.0143469 0.980079 0.0139045 0.97997 0.0136558C0.979313 0.0121603 0.977231 0.0109431 0.975832 0.0101258C0.975724 0.010062 0.975619 0.0100007 0.975519 0.00994181C0.974785 0.00952879 0.974441 0.0105492 0.974062 0.0116712C0.973717 0.0126999 0.973341 0.0138141 0.972608 0.0139871C0.971089 0.0143379 0.969708 0.015262 0.968674 0.0166199C0.968497 0.016852 0.968334 0.0170966 0.968184 0.0173522C0.967608 0.0168949 0.966973 0.0165477 0.966306 0.0163235C0.965966 0.0162138 0.965619 0.0161322 0.96527 0.0160795L0.965137 0.0153122C0.965137 0.0151034 0.965137 0.015033 0.965018 0.014667L0.964723 0.0136558C0.964509 0.0129997 0.964226 0.0123786 0.963878 0.0118075C0.963162 0.0106847 0.9622 0.00981112 0.961096 0.00927927C0.960292 0.00888371 0.959456 0.00901887 0.958599 0.00915737C0.958307 0.00920464 0.958012 0.00925231 0.957715 0.0092794L0.957656 0.00928662ZM0.0126099 0.0522153L0.0126164 0.0521254L0.0126169 0.0526447L0.0126099 0.0522153ZM0.908144 0.00843829L0.908282 0.00844313H0.907482L0.908144 0.00843829Z" fill="white"/>
    </clipPath>
</defs>
</svg>