<svg width="615" height="615" viewBox="0 0 615 615" fill="none" xmlns="http://www.w3.org/2000/svg">
<path fill-rule="evenodd" clip-rule="evenodd" d="M349.896 179.2H307.242V93.8667H349.896V179.2ZM520.512 307.2H435.204V264.533H520.512V307.2ZM419.046 225.525L479.359 165.173L449.203 135.008L388.89 195.36L419.046 225.525ZM449.205 436.713L479.361 406.547L419.049 346.195L388.892 376.361L449.205 436.713ZM238.08 225.525L268.237 195.36L207.924 135.008L177.767 165.173L238.08 225.525ZM234.924 403.567L175.336 463.172L151.194 439.023L210.803 379.418L167.871 336.495L318.483 295.812L277.812 446.468L234.924 403.567ZM297.583 520.538L372.974 241.327L93.8453 316.719L156.504 379.418L96.8951 439.023L175.336 517.466L234.924 457.86L297.583 520.538Z" fill="black"/>
</svg>
