<svg height="0" width="0" viewBox="0 0 1 1" fill="none" xmlns="http://www.w3.org/2000/svg">
  <defs>
    <clipPath id="containerClip02" clipPathUnits="objectBoundingBox">
<path fill-rule="evenodd" clip-rule="evenodd" d="M0.92939 0.979086C0.927952 0.980359 0.926089 0.981279 0.924018 0.981738C0.923044 0.981958 0.922038 0.982078 0.921026 0.982099H0.919413H0.916919L0.87202 0.983388C0.869396 0.983447 0.866828 0.982776 0.864754 0.981492C0.864248 0.981179 0.86378 0.980831 0.863354 0.980449C0.863134 0.980276 0.862929 0.980091 0.862736 0.979899L0.862356 0.979483H0.861548L0.859293 0.97935H0.858177C0.857847 0.979401 0.857514 0.979439 0.857179 0.979464H0.856658H0.848442H0.832485L0.83194 0.979728L0.831014 0.980089C0.829739 0.980546 0.828371 0.980808 0.826977 0.980867H0.819141C0.819262 0.982249 0.819019 0.983639 0.818429 0.984943C0.81783 0.986323 0.816815 0.987563 0.815473 0.988555C0.814132 0.989547 0.812505 0.99026 0.810737 0.990631C0.809847 0.990799 0.808942 0.990899 0.80803 0.990933H0.793997C0.793175 0.99116 0.792322 0.9913 0.791457 0.991352C0.791078 0.99138 0.790695 0.99138 0.790317 0.991352H0.789771H0.789462H0.788536L0.785046 0.991048H0.675824C0.674693 0.991049 0.673566 0.990928 0.672476 0.990688C0.671256 0.990416 0.670106 0.989973 0.66908 0.98938L0.65405 0.989549L0.653908 0.989816C0.653091 0.991129 0.651864 0.992253 0.650346 0.993076C0.648926 0.993854 0.6473 0.994359 0.645598 0.994555C0.64522 0.994605 0.644839 0.994637 0.644458 0.99465H0.631944H0.615181C0.614313 0.995489 0.613249 0.996184 0.612048 0.996698C0.611462 0.996943 0.61085 0.997146 0.610219 0.997304L0.609316 0.997513H0.608913L0.608675 0.997703C0.608357 0.997951 0.608016 0.998179 0.607654 0.998386C0.606188 0.999241 0.604471 0.999783 0.602668 0.99996C0.601879 1.00001 0.601083 1.00001 0.600294 0.99996H0.59906L0.596567 0.999827L0.586617 0.999259L0.566672 0.998158L0.546751 0.99704C0.54472 0.996939 0.542678 0.996816 0.540632 0.99669L0.540586 0.996688C0.535996 0.996409 0.531399 0.996129 0.526925 0.996129C0.526263 0.99612 0.525603 0.996063 0.524955 0.995958L0.524052 0.99577L0.507621 0.99484H0.50653L0.504701 0.99465C0.503328 0.994418 0.502019 0.993996 0.500831 0.993399C0.498416 0.992184 0.496648 0.9903 0.495868 0.988108L0.49575 0.987692H0.472148H0.47127C0.470661 0.987667 0.470057 0.987599 0.469466 0.987483C0.466799 0.987036 0.464443 0.985804 0.462864 0.984032L0.462745 0.98388L0.461534 0.983749H0.461249H0.460989H0.459826H0.45745L0.448191 0.983407L0.42967 0.982724H0.430311C0.429279 0.982722 0.428248 0.982673 0.427225 0.982572H0.426583C0.426329 0.98296 0.426044 0.983335 0.425729 0.983692C0.424369 0.985245 0.422434 0.986418 0.420196 0.987048C0.419126 0.98735 0.418006 0.987529 0.416872 0.987578H0.414997L0.411458 0.987673L0.397211 0.988089L0.372209 0.988829L0.371687 0.989133L0.370881 0.989549C0.370335 0.989816 0.369773 0.990057 0.369194 0.99027C0.365739 0.991608 0.361864 0.992105 0.358058 0.991692C0.35555 0.991441 0.35313 0.990798 0.350935 0.989797C0.349799 0.989249 0.348734 0.988614 0.347754 0.987901L0.347065 0.987333L0.22578 0.980203H0.194392H0.169365C0.168757 0.980184 0.168154 0.98012 0.167561 0.980013C0.16624 0.979797 0.164976 0.979392 0.163834 0.978819C0.162652 0.978217 0.161628 0.977437 0.160818 0.976525L0.146927 0.975709H0.118696V0.974059L0.115301 0.974344C0.114557 0.975553 0.113506 0.976625 0.112214 0.977492C0.110845 0.97842 0.109216 0.97907 0.107465 0.979388C0.106575 0.97953 0.105666 0.979587 0.104758 0.979559H0.10312L0.0922214 0.978951L0.081323 0.978344L0.0758856 0.978042H0.0745084C0.0740573 0.977928 0.0737012 0.977928 0.072799 0.977928C0.0711146 0.977741 0.0694973 0.977276 0.0680502 0.976563L0.0491974 0.974932L0.0393913 0.974078L0.0368507 0.973852C0.0366732 0.973829 0.036497 0.973808 0.0363218 0.973789C0.0357709 0.973728 0.0352304 0.973667 0.0346899 0.973509C0.0339776 0.9733 0.0332415 0.973055 0.032553 0.972808C0.0311267 0.972205 0.0298695 0.971375 0.0288584 0.970371C0.0278473 0.969365 0.0271034 0.968205 0.0266722 0.966964C0.0263233 0.965958 0.0261852 0.964916 0.0262612 0.963878H0.026241V0.916743L0.0258546 0.911148C0.025573 0.910838 0.0253048 0.91049 0.0250516 0.910112C0.0241313 0.908675 0.0234666 0.9068 0.0231378 0.904713C0.0229834 0.903745 0.022898 0.902747 0.0228835 0.901743V0.900139V0.897663L0.0219735 0.853084C0.0219326 0.850477 0.0224056 0.847928 0.0233118 0.845869C0.0235328 0.845367 0.0237792 0.844901 0.0240479 0.844477C0.0241708 0.844262 0.0243004 0.844057 0.024436 0.843865L0.0247304 0.843489V0.842686L0.0248241 0.840447V0.839338C0.0247879 0.839011 0.0247611 0.838681 0.0247438 0.838348V0.837829V0.829673V0.813831L0.0245564 0.813287L0.0243021 0.812369C0.0239803 0.811103 0.0237943 0.809745 0.0237534 0.808361V0.80058C0.0227768 0.8007 0.0217968 0.800458 0.020876 0.799873C0.0199022 0.799279 0.0190265 0.79827 0.0183263 0.796939C0.0176261 0.795606 0.0171228 0.79399 0.016861 0.792236C0.0167429 0.791352 0.0166712 0.790452 0.0166469 0.789548V0.775614C0.0164874 0.774798 0.0163885 0.773951 0.0163525 0.773091C0.0163324 0.772715 0.0163324 0.772336 0.0163525 0.77196V0.771418V0.771112V0.770192L0.0165666 0.766726V0.658279C0.0165658 0.657156 0.0166514 0.656038 0.0168209 0.654956C0.0170128 0.653743 0.0173255 0.652603 0.0177443 0.651584L0.0176239 0.636662L0.0174365 0.636519C0.0165095 0.635709 0.0157166 0.63449 0.0151346 0.632983C0.0145865 0.631572 0.0142294 0.62996 0.0140907 0.628268C0.0140558 0.627894 0.0140335 0.627515 0.0140238 0.627137V0.614713V0.598068C0.0134319 0.597205 0.0129409 0.596148 0.0125784 0.594956C0.012405 0.594375 0.0122616 0.593768 0.0121501 0.593141L0.0120029 0.592245V0.591844L0.0118691 0.591608C0.0116942 0.591293 0.0115332 0.590952 0.0113873 0.590595C0.0107836 0.589139 0.0104012 0.587433 0.0102764 0.585645C0.0102381 0.584859 0.0102381 0.58407 0.0102764 0.583287V0.582061L0.0103701 0.579586L0.0107716 0.569707L0.0115478 0.549903L0.0123375 0.530124C0.0124075 0.528106 0.0124954 0.526074 0.0125834 0.52404L0.012585 0.524002L0.0125851 0.524C0.0127823 0.519445 0.0129799 0.51488 0.0129799 0.510439C0.0129861 0.509781 0.0130264 0.509125 0.0131003 0.508481L0.0132342 0.507586L0.0138899 0.491272V0.490186L0.0140238 0.488373C0.014187 0.48701 0.0144861 0.485707 0.0149071 0.484529C0.015764 0.482131 0.0170939 0.480376 0.018641 0.479601L0.0189354 0.479483V0.456049V0.455177C0.0189526 0.454574 0.0190019 0.453973 0.0190827 0.453386C0.0193978 0.45074 0.0202675 0.448399 0.0215184 0.446833L0.0216255 0.446715L0.0217192 0.445511V0.445228V0.44497V0.443814V0.441456L0.0219601 0.432262L0.0150886 0.413873V0.414509C0.0150897 0.413485 0.0151254 0.412462 0.0151957 0.411445V0.410808C0.0149221 0.410557 0.0146583 0.410274 0.0144061 0.40996C0.0133099 0.40861 0.0124814 0.406688 0.0120372 0.404468C0.0118233 0.403405 0.0116971 0.402293 0.0116625 0.401167V0.399304L0.0115955 0.395791L0.0113011 0.381646L0.0107792 0.356821L0.010565 0.356302L0.0102706 0.3555C0.0100828 0.35496 0.00991302 0.354401 0.00976203 0.353827C0.0088171 0.350395 0.00846795 0.346549 0.00875828 0.34277C0.00893525 0.340279 0.0093901 0.337876 0.0100966 0.335698C0.0104829 0.33457 0.0109311 0.333511 0.011435 0.332538L0.0118365 0.331856L0.00755103 0.319392L0.0100966 0.294677L0.00951529 0.180265L0.00657399 0.155417C0.00658735 0.154813 0.00663216 0.154214 0.00670782 0.153625C0.00686088 0.152312 0.00714644 0.151059 0.00755103 0.149924C0.00797626 0.148751 0.00852608 0.147734 0.00917039 0.146929L0.00680448 0.133138L0.00827514 0.112711C0.00827514 0.112711 0.00762865 0.107558 0.00701719 0.106275C0.00636182 0.104917 0.00590258 0.103299 0.00567884 0.10156C0.00557789 0.100676 0.00553743 0.0997738 0.00555835 0.0988726V0.0972458L0.00157463 0.0788202L0.00200292 0.0679991L0.00221706 0.0626004V0.0612329C0.00229731 0.060785 0.00229731 0.0604314 0.00229731 0.0595356C0.00242931 0.0578631 0.00275743 0.0562572 0.00326102 0.0548205L0 0.0361015L0.00207281 0.026365L0.00223345 0.0238424C0.00224959 0.0236662 0.0022634 0.0234911 0.00227707 0.0233173C0.00232024 0.0227703 0.0023627 0.0222336 0.00247435 0.021697C0.00262161 0.0209897 0.00279563 0.0202589 0.0029695 0.0195753C0.00339575 0.018159 0.00398133 0.0169108 0.00469063 0.0159068C0.00539993 0.0149029 0.00621797 0.0141642 0.00709489 0.0137362C0.00782003 0.0133821 0.0085728 0.0132466 0.00932149 0.0133334C0.00987058 0.0131039 0.0104703 0.0130059 0.0111162 0.0129004C0.0116821 0.0128079 0.012284 0.0127096 0.0129177 0.0125118C0.0141275 0.0121743 0.0193402 0.0123493 0.0224357 0.0124533L0.0224397 0.0124534C0.0233638 0.0124844 0.0240989 0.0125091 0.0244816 0.0125118L0.0713064 0.0140855H0.0844079C0.0845283 0.0135505 0.0847031 0.0130242 0.0849304 0.0125118C0.0852632 0.0118525 0.0856684 0.011218 0.0861413 0.0106158C0.0871967 0.0092427 0.0886943 0.00812084 0.0904775 0.00736715C0.0922607 0.00661348 0.0942646 0.00625559 0.0962799 0.00633082L0.177246 0.0106727H0.177627H0.178411L0.179953 0.0105021L0.182993 0.0102745L0.189166 0.00961093L0.201537 0.00828371L0.220912 0.00619808L0.221077 0.00583783C0.221694 0.00467875 0.222581 0.00362359 0.22369 0.00272836C0.224821 0.00176975 0.226211 0.00102919 0.227753 0.000562743C0.229296 9.62918e-05 0.230952 -8.38304e-05 0.232594 3.60261e-05L0.256813 0.00236816L0.268684 0.00350574L0.271653 0.00380911H0.272412L0.273409 0.00392287C0.274294 0.0040415 0.275161 0.00423211 0.275998 0.00449167C0.277821 0.00502793 0.279451 0.00591337 0.280746 0.00707027L0.281553 0.00784764L0.289816 0.00720297C0.290788 0.00640413 0.291939 0.00576059 0.293212 0.00530696C0.294534 0.00483356 0.295966 0.00458808 0.297415 0.00458648C0.297747 0.00456669 0.29808 0.00456669 0.298413 0.00458648H0.299125H0.300098L0.302021 0.00477606L0.309714 0.00553449L0.325076 0.00707027L0.355184 0.0100849L0.386882 0.00746842L0.403051 0.00612226L0.407088 0.00579994H0.407587C0.407886 0.00578344 0.408189 0.00578344 0.408488 0.00579994H0.410508C0.411169 0.00581272 0.411825 0.00590213 0.412454 0.00606538C0.413103 0.00619335 0.413725 0.00639108 0.414306 0.00665314C0.416679 0.00769439 0.418514 0.00937393 0.419482 0.0113932C0.419951 0.0123272 0.420246 0.0133108 0.420361 0.014313V0.0150146V0.0155075V0.0158867L0.432684 0.0163418C0.433365 0.0161242 0.434073 0.0159653 0.434797 0.0158678H0.435841H0.436578H0.437647L0.44185 0.0157351L0.450279 0.0154696L0.467137 0.0149387L0.500853 0.013877L0.534545 0.0127963C0.53755 0.0126732 0.540563 0.0126732 0.543568 0.0127963L0.552068 0.0133271L0.556271 0.0135926L0.558384 0.0137253H0.559453C0.559703 0.0137483 0.559953 0.0137901 0.5602 0.0138316L0.560202 0.0138317C0.560567 0.0138925 0.560929 0.0139528 0.56128 0.0139528C0.563884 0.0143992 0.566235 0.0155107 0.567976 0.0171192L0.569022 0.0182757L0.590913 0.0153938L0.604471 0.0136115L0.611238 0.0127204L0.614634 0.0122653L0.617792 0.0117724C0.618955 0.0115828 0.620214 0.0113932 0.621614 0.0112415C0.623102 0.0110983 0.624604 0.0110602 0.626101 0.0111277C0.627782 0.0112251 0.629223 0.0113965 0.630515 0.0115505L0.630522 0.0115513C0.631493 0.0116668 0.63238 0.0117724 0.633225 0.0118293L0.646877 0.0130048L0.660531 0.0141993L0.663949 0.0144837L0.665635 0.0146354H0.66649L0.66763 0.0147491C0.66979 0.0150186 0.671817 0.0157527 0.673495 0.0168727C0.674313 0.0174289 0.675039 0.018066 0.675655 0.0187687C0.675954 0.0191112 0.676232 0.0194656 0.676487 0.0198304C0.676716 0.0201504 0.676907 0.0204869 0.677056 0.0208354H0.733543C0.733745 0.0206856 0.73396 0.0205462 0.734184 0.0204183C0.734542 0.020211 0.734914 0.0200211 0.735301 0.0198494C0.736836 0.0191612 0.738551 0.0187716 0.74031 0.0187118L0.817122 0.0158488C0.818483 0.015211 0.820003 0.0148209 0.821576 0.0147062C0.823148 0.0145914 0.824732 0.014755 0.826215 0.0151852L0.827236 0.0154886H0.828258L0.832461 0.0153369L0.840865 0.0150146L0.849294 0.0147112H0.851385H0.852785C0.853453 0.0147259 0.854119 0.0147766 0.854779 0.0148629C0.856518 0.0151112 0.858152 0.0157045 0.859529 0.0165883L0.897898 0.0160195H0.89702C0.898041 0.0159471 0.899069 0.0159441 0.900089 0.0160103L0.899442 0.0160195H0.900226L0.900089 0.0160103L0.930166 0.0155834L0.93786 0.0154696H0.939758H0.940732C0.941333 0.0154351 0.941936 0.0154351 0.942536 0.0154696C0.944434 0.0156534 0.946228 0.0162222 0.947753 0.0171103H0.962472C0.963715 0.0171103 0.964836 0.0177897 0.96563 0.0188799C0.965769 0.0188021 0.965926 0.0188207 0.966107 0.0189649C0.966204 0.0190468 0.966307 0.0191321 0.966415 0.0192209C0.967784 0.0203574 0.969824 0.0220504 0.970468 0.0241295C0.970573 0.0244719 0.970663 0.0250781 0.970772 0.0258171L0.970775 0.025839C0.970975 0.0272103 0.971243 0.0290308 0.971794 0.0304709C0.972649 0.0326977 0.973187 0.0371513 0.973187 0.0371513V0.0401205V0.0556979C0.973492 0.0560179 0.973783 0.0563745 0.974056 0.0567648C0.975053 0.0582422 0.975773 0.0601705 0.976129 0.0623171C0.976296 0.0633125 0.976389 0.0643386 0.976405 0.0653721V0.0670209V0.0695667L0.977391 0.115416C0.977436 0.118095 0.976923 0.120717 0.975941 0.122836C0.975702 0.123352 0.975435 0.123831 0.975143 0.124266C0.975011 0.124489 0.97487 0.124699 0.974723 0.124897L0.974405 0.125284V0.126109L0.974303 0.128412V0.129552C0.974342 0.129889 0.974371 0.130229 0.97439 0.13057V0.131104V0.139493V0.155786L0.974592 0.156344L0.974869 0.157289C0.975217 0.15859 0.975418 0.159988 0.975463 0.161411V0.169413C0.97652 0.16929 0.977583 0.169538 0.97858 0.17014C0.979636 0.170752 0.980583 0.171788 0.981342 0.173158C0.982101 0.174528 0.982646 0.17619 0.98293 0.177996C0.983058 0.178903 0.983135 0.179829 0.983161 0.18076V0.195089C0.983334 0.195928 0.983441 0.1968 0.983481 0.197684C0.983502 0.19807 0.983502 0.19846 0.983481 0.198848V0.199405V0.199721V0.200665L0.983248 0.20423V0.315762C0.98325 0.316918 0.983157 0.318068 0.982973 0.319181C0.982765 0.320428 0.982427 0.321601 0.981973 0.322648L0.982103 0.337996L0.982306 0.338143C0.983311 0.338975 0.98417 0.340228 0.984799 0.341779C0.985394 0.34323 0.985781 0.344888 0.98593 0.346627C0.985968 0.347013 0.985993 0.347401 0.986003 0.347791V0.36057V0.377688C0.986644 0.378574 0.987176 0.379662 0.987569 0.380888C0.987756 0.381485 0.987912 0.38211 0.988032 0.382755L0.988192 0.383677V0.384087L0.988338 0.384331C0.988527 0.384656 0.988701 0.385004 0.98886 0.385373C0.989514 0.386871 0.989928 0.388624 0.990063 0.390466C0.990104 0.391272 0.990104 0.392084 0.990063 0.39289V0.39415L0.989962 0.396696L0.989527 0.406856L0.988685 0.427222L0.98783 0.447565C0.987753 0.449644 0.987659 0.451738 0.987563 0.453831L0.987561 0.453861C0.987348 0.458548 0.987134 0.463241 0.987134 0.46781C0.987127 0.468487 0.987083 0.46916 0.987003 0.469823L0.986859 0.470743L0.986148 0.487523V0.488637L0.986003 0.490506C0.985826 0.491907 0.985503 0.493245 0.985047 0.494456C0.984118 0.496922 0.982677 0.498728 0.981001 0.499525L0.980682 0.499646V0.523747V0.524643C0.980663 0.525264 0.980609 0.525882 0.980522 0.526487C0.980181 0.529207 0.979239 0.531614 0.977884 0.533226L0.977767 0.533348L0.977667 0.534584V0.534875V0.535143V0.536331V0.538755L0.977405 0.548211L0.976884 0.567124V0.566468C0.976882 0.567521 0.976844 0.568574 0.976767 0.56962V0.570276C0.977064 0.570534 0.97735 0.570825 0.977623 0.571148C0.978811 0.572536 0.979708 0.574511 0.980189 0.576797C0.980421 0.57789 0.980557 0.579034 0.980595 0.580192V0.582106L0.980668 0.585719L0.980986 0.600268L0.981552 0.625798L0.981784 0.626333L0.982103 0.627156C0.982306 0.627711 0.982491 0.628287 0.982654 0.628878C0.983677 0.632407 0.984056 0.636363 0.983741 0.640249C0.983549 0.64281 0.983058 0.645281 0.982292 0.647523C0.981873 0.648682 0.981387 0.649772 0.980842 0.650772L0.980407 0.651475L0.986586 0.775325V0.807378V0.832933C0.986571 0.833553 0.986522 0.834171 0.986441 0.834776C0.986275 0.836125 0.985965 0.837416 0.985528 0.838584C0.985067 0.839789 0.986226 0.846131 0.985528 0.846958C0.985528 0.846958 0.985382 0.854563 0.986441 0.860266C0.987499 0.86597 0.992064 0.880228 0.992064 0.880228V0.884675L0.992282 0.888143C0.993207 0.888901 0.994026 0.889975 0.994688 0.891295C0.995399 0.892692 0.995896 0.894356 0.996139 0.896143C0.996248 0.897053 0.996291 0.897981 0.99627 0.898907V0.90058L0.995804 0.911709L0.995341 0.922838L0.99511 0.928392V0.929797C0.995022 0.930259 0.995022 0.930622 0.995022 0.931544C0.99488 0.933262 0.993978 0.936392 0.993978 0.936392L1 0.955644L0.999347 0.965658L0.999174 0.968251C0.999157 0.968433 0.999141 0.968612 0.999126 0.968791C0.99908 0.969354 0.999033 0.969907 0.998913 0.970458C0.998753 0.971186 0.998565 0.971937 0.998376 0.972641C0.997915 0.974097 0.99728 0.97538 0.996512 0.976413C0.995743 0.977445 0.994856 0.978205 0.993907 0.978645C0.993138 0.979002 0.992342 0.979143 0.991548 0.979065V0.979086H0.92939Z" fill="white"/>
</clipPath>
</defs>
</svg>
