<svg height="0" width="0" viewBox="0 0 1 1" fill="none" xmlns="http://www.w3.org/2000/svg">
  <defs>
    <clipPath id="containerClip01" clipPathUnits="objectBoundingBox">
      <path
        fill-rule="evenodd"
        clip-rule="evenodd"
        d="M0.938047 0.979086C0.93658 0.980359 0.934678 0.981279 0.932565 0.981738C0.931571 0.981958 0.930545 0.982078 0.929512 0.982099H0.927865H0.92532L0.879497 0.983388C0.876819 0.983447 0.874199 0.982776 0.872082 0.981492C0.871565 0.981179 0.871088 0.980831 0.870653 0.980449C0.870429 0.980276 0.87022 0.980091 0.870022 0.979899L0.869635 0.979483H0.86881L0.866509 0.97935H0.865369C0.865033 0.979401 0.864693 0.979439 0.864352 0.979464H0.863819H0.855435H0.83915L0.838593 0.979728L0.837648 0.980089C0.836347 0.980546 0.834951 0.980808 0.833528 0.980867H0.825531C0.825654 0.982249 0.825407 0.983639 0.824804 0.984943C0.824193 0.986323 0.823157 0.987563 0.821788 0.988555C0.820418 0.989547 0.818758 0.99026 0.816954 0.990631C0.816046 0.990799 0.815122 0.990899 0.814191 0.990933H0.799869C0.799031 0.99116 0.79816 0.9913 0.797277 0.991352C0.79689 0.99138 0.7965 0.99138 0.796114 0.991352H0.795556H0.795242H0.794297L0.790734 0.991048H0.679266C0.678111 0.991049 0.676961 0.990928 0.675849 0.990688C0.674604 0.990416 0.67343 0.989973 0.672383 0.98938L0.657044 0.989549L0.656899 0.989816C0.656065 0.991129 0.654813 0.992253 0.653264 0.993076C0.651815 0.993854 0.650156 0.994359 0.648418 0.994555C0.648033 0.994605 0.647644 0.994637 0.647255 0.99465H0.634484H0.617375C0.61649 0.995489 0.615404 0.996184 0.614178 0.996698C0.61358 0.996943 0.612955 0.997146 0.612312 0.997304L0.61139 0.997513H0.610979L0.610736 0.997703C0.610411 0.997951 0.610064 0.998179 0.609694 0.998386C0.608197 0.999241 0.606445 0.999783 0.604605 0.99996C0.6038 1.00001 0.602988 1.00001 0.602182 0.99996H0.600923L0.598378 0.999827L0.588224 0.999259L0.567869 0.998158L0.547539 0.99704C0.545466 0.996939 0.543381 0.996816 0.541294 0.99669L0.541246 0.996688C0.536562 0.996409 0.531871 0.996129 0.527304 0.996129C0.526629 0.99612 0.525955 0.996063 0.525294 0.995958L0.524372 0.99577L0.507604 0.99484H0.50649L0.504623 0.99465C0.503223 0.994418 0.501886 0.993996 0.500674 0.993399C0.498209 0.992184 0.496405 0.9903 0.495608 0.988108L0.495488 0.987692H0.471401H0.470504C0.469883 0.987667 0.469267 0.987599 0.468663 0.987483C0.465942 0.987036 0.463537 0.985804 0.461926 0.984032L0.461804 0.98388L0.460568 0.983749H0.460277H0.460012H0.458825H0.456401L0.446951 0.983407L0.428049 0.982724H0.428703C0.42765 0.982722 0.426598 0.982673 0.425553 0.982572H0.424899C0.424639 0.98296 0.424349 0.983335 0.424027 0.983692C0.422639 0.985245 0.420665 0.986418 0.41838 0.987048C0.417288 0.98735 0.416145 0.987529 0.414988 0.987578H0.413074L0.409463 0.987673L0.394923 0.988089L0.369407 0.988829L0.368874 0.989133L0.36805 0.989549C0.367494 0.989816 0.36692 0.990057 0.366329 0.99027C0.362803 0.991608 0.358849 0.992105 0.354964 0.991692C0.352405 0.991441 0.349935 0.990798 0.347694 0.989797C0.346536 0.989249 0.345448 0.988614 0.344448 0.987901L0.343745 0.987333L0.219966 0.980203H0.187932H0.16239C0.16177 0.980184 0.161154 0.98012 0.160549 0.980013C0.1592 0.979797 0.157911 0.979392 0.156745 0.978819C0.155539 0.978217 0.154494 0.977437 0.153668 0.976525L0.139491 0.975709H0.110679V0.974059L0.107214 0.974344C0.106455 0.975553 0.105382 0.976625 0.104064 0.977492C0.102667 0.97842 0.101004 0.97907 0.0992169 0.979388C0.0983082 0.97953 0.0973807 0.979587 0.0964544 0.979559H0.0947825L0.0836598 0.978951L0.0725372 0.978344L0.066988 0.978042H0.0655825C0.0651221 0.977928 0.0647586 0.977928 0.0638378 0.977928C0.0621188 0.977741 0.0604682 0.977276 0.0589914 0.976563L0.0397509 0.974932L0.029743 0.974078L0.0271501 0.973852C0.026969 0.973829 0.0267892 0.973808 0.0266104 0.973789C0.0260482 0.973728 0.0254966 0.973667 0.024945 0.973509C0.024218 0.9733 0.0234668 0.973055 0.0227641 0.972808C0.0213085 0.972205 0.0200254 0.971375 0.0189935 0.970371C0.0179616 0.969365 0.0172024 0.968205 0.0167623 0.966964C0.0164062 0.965958 0.0162653 0.964916 0.0163429 0.963878H0.0163223V0.916743L0.0159279 0.911148C0.0156405 0.910838 0.0153668 0.91049 0.0151085 0.910112C0.0141691 0.908675 0.0134908 0.9068 0.0131552 0.904713C0.0129977 0.903745 0.0129105 0.902747 0.0128957 0.901743V0.900139V0.897663L0.0119669 0.853084C0.0119253 0.850477 0.012408 0.847928 0.0133328 0.845869C0.0135584 0.845367 0.0138098 0.844901 0.014084 0.844477C0.0142095 0.844262 0.0143418 0.844057 0.0144801 0.843865L0.0147806 0.843489V0.842686L0.0148763 0.840447V0.839338C0.0148393 0.839011 0.014812 0.838681 0.0147943 0.838348V0.837829V0.829673V0.813831L0.014603 0.813287L0.0143435 0.812369C0.0140151 0.811103 0.0138252 0.809745 0.0137835 0.808361V0.80058C0.0127868 0.8007 0.0117867 0.800458 0.0108469 0.799873C0.0098531 0.799279 0.00895941 0.79827 0.00824476 0.796939C0.00753013 0.795606 0.00701653 0.79399 0.00674936 0.792236C0.00662884 0.791352 0.00655568 0.790452 0.00653082 0.789548V0.775614C0.00636806 0.774798 0.00626708 0.773951 0.00623036 0.773091C0.0062099 0.772715 0.0062099 0.772336 0.00623036 0.77196V0.771418V0.771112V0.770192L0.00644887 0.766726V0.658279C0.0064481 0.657156 0.0065354 0.656038 0.0067084 0.654956C0.00690429 0.653743 0.0072234 0.652603 0.00765083 0.651584L0.00752791 0.636662L0.00733669 0.636519C0.00639056 0.635709 0.00558144 0.63449 0.00498742 0.632983C0.00442806 0.631572 0.00406359 0.62996 0.00392205 0.628268C0.00388648 0.627894 0.00386368 0.627515 0.00385375 0.627137V0.614713V0.598068C0.00324966 0.597205 0.00274862 0.596148 0.00237862 0.594956C0.00220166 0.594375 0.00205539 0.593768 0.00194156 0.593141L0.00179131 0.592245V0.591844L0.00165472 0.591608C0.00147631 0.591293 0.00131194 0.590952 0.00116301 0.590595C0.000546945 0.589139 0.000156714 0.587433 2.93392e-05 0.585645C-9.77975e-06 0.584859 -9.7797e-06 0.58407 2.93392e-05 0.583287L2.93393e-05 0.582061L0.000124961 0.579586L0.000534702 0.569707L0.0013269 0.549903L0.00213277 0.530124C0.00220429 0.528106 0.00229395 0.526074 0.00238375 0.52404L0.00238542 0.524002L0.00238547 0.524C0.00258677 0.519445 0.00278838 0.51488 0.00278838 0.510439C0.00279476 0.509781 0.0028359 0.509125 0.00291131 0.508481L0.00304789 0.507586L0.00371715 0.491272V0.490186L0.00385375 0.488373C0.00402036 0.48701 0.00432556 0.485707 0.00475522 0.484529C0.00562973 0.482131 0.006987 0.480376 0.00856596 0.479601L0.00886645 0.479483V0.456049V0.455177C0.00888395 0.454574 0.00893426 0.453973 0.00901671 0.453386C0.00933828 0.45074 0.0102259 0.448399 0.0115026 0.446833L0.0116118 0.446715L0.0117074 0.445511V0.445228V0.44497V0.443814V0.441456L0.0119533 0.432262L0.012445 0.413873V0.414509C0.0124461 0.413485 0.0124826 0.412462 0.0125543 0.411445V0.410808C0.0122751 0.410557 0.0120059 0.410274 0.0117484 0.40996C0.0106297 0.40861 0.00978421 0.406688 0.00933085 0.404468C0.00911255 0.403405 0.00898375 0.402293 0.00894841 0.401167V0.399304L0.00888012 0.395791L0.00857961 0.381646L0.00804693 0.356821L0.00782841 0.356302L0.00752792 0.3555C0.00733629 0.35496 0.00716298 0.354401 0.00700889 0.353827C0.00604453 0.350395 0.00568819 0.346549 0.0059845 0.34277C0.0061651 0.340279 0.0066293 0.337876 0.00735036 0.335698C0.00774454 0.33457 0.00820202 0.333511 0.00871622 0.332538L0.00912598 0.331856L0.0142616 0.211432V0.180265L0.0142616 0.155417C0.0142753 0.154813 0.014321 0.154214 0.0143982 0.153625C0.0145544 0.152312 0.0148458 0.151059 0.0152588 0.149924C0.0156927 0.148751 0.0162539 0.147734 0.0169114 0.146929L0.0174987 0.133138V0.105107C0.0174987 0.105107 0.0168389 0.0999532 0.0162148 0.0986707C0.015546 0.097312 0.0150773 0.0956943 0.014849 0.0939555C0.0147459 0.0930715 0.0147046 0.0921692 0.014726 0.0912681V0.0896413L0.0151631 0.0788202L0.0156001 0.0679991L0.0158187 0.0626004V0.0612329C0.0159006 0.060785 0.0159006 0.0604314 0.0159006 0.0595356C0.0160353 0.0578631 0.0163702 0.0562572 0.0168841 0.0548205L0.0180588 0.0361015L0.0186733 0.026365L0.0188372 0.0238424C0.0188537 0.0236662 0.0188678 0.0234911 0.0188818 0.0233173C0.0189258 0.0227703 0.0189691 0.0222336 0.0190831 0.021697C0.0192334 0.0209897 0.019411 0.0202589 0.0195884 0.0195753C0.0200234 0.018159 0.0206211 0.0169108 0.021345 0.0159068C0.0220688 0.0149029 0.0229037 0.0141642 0.0237987 0.0137362C0.0245387 0.0133821 0.025307 0.0132466 0.0260711 0.0133334C0.0266315 0.0131039 0.0272435 0.0130059 0.0279027 0.0129004C0.0284803 0.0128079 0.0290945 0.0127096 0.0297412 0.0125118C0.030976 0.0121743 0.0362958 0.0123493 0.039455 0.0124533L0.039459 0.0124534C0.0404022 0.0124844 0.0411524 0.0125091 0.041543 0.0125118L0.0623145 0.0140855H0.0756856C0.0758085 0.0135505 0.0759868 0.0130242 0.0762188 0.0125118C0.0765585 0.0118525 0.076972 0.011218 0.0774546 0.0106158C0.0785317 0.0092427 0.0800601 0.00812084 0.08188 0.00736715C0.0836999 0.00661348 0.085745 0.00625559 0.0878018 0.00633082L0.170433 0.0106727H0.170822H0.171622L0.173196 0.0105021L0.176298 0.0102745L0.182598 0.00961093L0.195224 0.00828371L0.214997 0.00619808L0.215166 0.00583783C0.215795 0.00467875 0.2167 0.00362359 0.217832 0.00272836C0.218987 0.00176975 0.220405 0.00102919 0.221979 0.000562743C0.223553 9.62918e-05 0.225243 -8.38304e-05 0.22692 3.60261e-05L0.251636 0.00236816L0.263752 0.00350574L0.266782 0.00380911H0.267556L0.268574 0.00392287C0.269478 0.0040415 0.270362 0.00423211 0.271217 0.00449167C0.273077 0.00502793 0.27474 0.00591337 0.276062 0.00707027L0.276886 0.00784764L0.285319 0.00720297C0.28631 0.00640413 0.287485 0.00576059 0.288785 0.00530696C0.290134 0.00483356 0.291595 0.00458808 0.293074 0.00458648C0.293412 0.00456669 0.293752 0.00456669 0.294092 0.00458648H0.294819H0.295812L0.297774 0.00477606L0.305626 0.00553449L0.321304 0.00707027L0.352031 0.0100849L0.384381 0.00746842L0.400883 0.00612226L0.405003 0.00579994H0.405512C0.405818 0.00578344 0.406126 0.00578344 0.406432 0.00579994H0.408493C0.409168 0.00581272 0.409837 0.00590213 0.410479 0.00606538C0.411141 0.00619335 0.411776 0.00639108 0.412369 0.00665314C0.414791 0.00769439 0.416663 0.00937393 0.417651 0.0113932C0.418131 0.0123272 0.418432 0.0133108 0.418549 0.014313V0.0150146V0.0155075V0.0158867L0.431125 0.0163418C0.43182 0.0161242 0.432543 0.0159653 0.433282 0.0158678H0.434347H0.435099H0.43619L0.440479 0.0157351L0.449082 0.0154696L0.466286 0.0149387L0.500696 0.013877L0.535082 0.0127963C0.538148 0.0126732 0.541223 0.0126732 0.544289 0.0127963L0.552964 0.0133271L0.557254 0.0135926L0.559411 0.0137253H0.560502C0.560757 0.0137483 0.561012 0.0137901 0.561264 0.0138316L0.561266 0.0138317C0.561638 0.0138925 0.562007 0.0139528 0.562366 0.0139528C0.565024 0.0143992 0.567423 0.0155107 0.5692 0.0171192L0.570267 0.0182757L0.592608 0.0153938L0.606445 0.0136115L0.613352 0.0127204L0.616817 0.0122653L0.62004 0.0117724C0.621227 0.0115828 0.622512 0.0113932 0.623941 0.0112415C0.62546 0.0110983 0.626993 0.0110602 0.628521 0.0111277C0.630236 0.0112251 0.631706 0.0113965 0.633025 0.0115505L0.633033 0.0115513C0.634024 0.0116668 0.634929 0.0117724 0.635791 0.0118293L0.649724 0.0130048L0.663659 0.0141993L0.667147 0.0144837L0.668868 0.0146354H0.66974L0.670904 0.0147491C0.673108 0.0150186 0.675177 0.0157527 0.676889 0.0168727C0.677724 0.0174289 0.678464 0.018066 0.679093 0.0187687C0.679399 0.0191112 0.679682 0.0194656 0.679942 0.0198304C0.680177 0.0201504 0.680371 0.0204869 0.680524 0.0208354H0.738172C0.738378 0.0206856 0.738598 0.0205462 0.738826 0.0204183C0.739191 0.020211 0.739571 0.0200211 0.739966 0.0198494C0.741533 0.0191612 0.743283 0.0187716 0.745079 0.0187118L0.82347 0.0158488C0.824859 0.015211 0.826411 0.0148209 0.828016 0.0147062C0.82962 0.0145914 0.831237 0.014755 0.832751 0.0151852L0.833792 0.0154886H0.834835L0.839125 0.0153369L0.847702 0.0150146L0.856304 0.0147112H0.858438H0.859866C0.860549 0.0147259 0.861228 0.0147766 0.861902 0.0148629C0.863677 0.0151112 0.865344 0.0157045 0.866749 0.0165883L0.905908 0.0160195H0.905012C0.906053 0.0159471 0.907102 0.0159441 0.908144 0.0160103L0.907484 0.0160195H0.908283L0.908144 0.0160103L0.93884 0.0155834L0.946691 0.0154696H0.948629H0.949623C0.950236 0.0154351 0.950852 0.0154351 0.951464 0.0154696C0.953401 0.0156534 0.955231 0.0162222 0.956788 0.0171103H0.97181C0.973079 0.0171103 0.974223 0.0177897 0.975033 0.0188799C0.975175 0.0188021 0.975335 0.0188207 0.975519 0.0189649C0.975619 0.0190468 0.975724 0.0191321 0.975834 0.0192209C0.977231 0.0203574 0.979313 0.0220504 0.97997 0.0241295C0.980077 0.0244719 0.980169 0.0250781 0.98028 0.0258171L0.980283 0.025839C0.980488 0.0272103 0.980761 0.0290308 0.981323 0.0304709C0.982196 0.0326977 0.982745 0.0371513 0.982745 0.0371513V0.0401205V0.0556979C0.983056 0.0560179 0.983353 0.0563745 0.983632 0.0567648C0.98465 0.0582422 0.985384 0.0601705 0.985748 0.0623171C0.985918 0.0633125 0.986013 0.0643386 0.98603 0.0653721V0.0670209V0.0695667L0.987036 0.115416C0.987082 0.118095 0.986558 0.120717 0.985556 0.122836C0.985312 0.123352 0.98504 0.123831 0.984742 0.124266C0.984607 0.124489 0.984463 0.124699 0.984313 0.124897L0.983988 0.125284V0.126109L0.983884 0.128412V0.129552C0.983924 0.129889 0.983954 0.130229 0.983973 0.13057V0.131104V0.139493V0.155786L0.984179 0.156344L0.984461 0.157289C0.984817 0.15859 0.985022 0.159988 0.985068 0.161411V0.169413C0.986147 0.16929 0.987231 0.169538 0.988249 0.17014C0.989326 0.170752 0.990294 0.171788 0.991068 0.173158C0.991843 0.174528 0.992399 0.17619 0.992688 0.177996C0.992819 0.178903 0.992898 0.179829 0.992924 0.18076V0.195089C0.993101 0.195928 0.993211 0.1968 0.993251 0.197684C0.993273 0.19807 0.993273 0.19846 0.993251 0.198848V0.199405V0.199721V0.200665L0.993013 0.20423V0.315762C0.993015 0.316918 0.99292 0.318068 0.992733 0.319181C0.992521 0.320428 0.992175 0.321601 0.991712 0.322648L0.991844 0.337996L0.992052 0.338143C0.993077 0.338975 0.993954 0.340228 0.994596 0.341779C0.995203 0.34323 0.995598 0.344888 0.995751 0.346627C0.995789 0.347013 0.995814 0.347401 0.995825 0.347791V0.36057V0.377688C0.996479 0.378574 0.997022 0.379662 0.997423 0.380888C0.997614 0.381485 0.997773 0.38211 0.997896 0.382755L0.998059 0.383677V0.384087L0.998208 0.384331C0.998401 0.384656 0.998579 0.385004 0.99874 0.385373C0.999408 0.386871 0.999831 0.388624 0.999969 0.390466C1.00001 0.391272 1.00001 0.392084 0.999969 0.39289V0.39415L0.999865 0.396696L0.999421 0.406856L0.998562 0.427222L0.99769 0.447565C0.997611 0.449644 0.997515 0.451738 0.997417 0.453831L0.997415 0.453861C0.997197 0.458548 0.996979 0.463241 0.996979 0.46781C0.996972 0.468487 0.996927 0.46916 0.996846 0.469823L0.996699 0.470743L0.995973 0.487523V0.488637L0.995825 0.490506C0.995644 0.491907 0.995315 0.493245 0.994849 0.494456C0.993901 0.496922 0.99243 0.498728 0.99072 0.499525L0.990395 0.499646V0.523747V0.524643C0.990375 0.525264 0.99032 0.525882 0.990231 0.526487C0.989883 0.529207 0.988921 0.531614 0.987539 0.533226L0.98742 0.533348L0.987318 0.534584V0.534875V0.535143V0.536331V0.538755L0.98705 0.548211L0.986518 0.567124V0.566468C0.986516 0.567521 0.986478 0.568574 0.986399 0.56962V0.570276C0.986702 0.570534 0.986994 0.570825 0.987273 0.571148C0.988485 0.572536 0.989401 0.574511 0.989892 0.576797C0.990128 0.57789 0.990267 0.579034 0.990306 0.580192V0.582106L0.99038 0.585719L0.990705 0.600268L0.991282 0.625798L0.991519 0.626333L0.991844 0.627156C0.992052 0.627711 0.99224 0.628287 0.992407 0.628878C0.993451 0.632407 0.993838 0.636363 0.993516 0.640249C0.99332 0.64281 0.992819 0.645281 0.992037 0.647523C0.99161 0.648682 0.991114 0.649772 0.990558 0.650772L0.990114 0.651475L0.98455 0.775325V0.807378V0.832933C0.984536 0.833553 0.984485 0.834171 0.984402 0.834776C0.984233 0.836125 0.983917 0.837416 0.98347 0.838584C0.983 0.839789 0.982392 0.840835 0.981679 0.841662L0.981043 0.855846V0.884675H0.979755L0.979978 0.888143C0.980921 0.888901 0.981758 0.889975 0.982433 0.891295C0.983159 0.892692 0.983666 0.894356 0.983914 0.896143C0.984025 0.897053 0.98407 0.897981 0.984047 0.898907V0.90058L0.983573 0.911709L0.983099 0.922838L0.982864 0.928392V0.929797C0.982774 0.930259 0.982774 0.930622 0.982774 0.931544C0.982629 0.933262 0.982266 0.934914 0.981709 0.936392L0.980436 0.955644L0.97977 0.965658L0.979593 0.968251C0.979576 0.968433 0.979559 0.968612 0.979545 0.968791C0.979497 0.969354 0.97945 0.969907 0.979326 0.970458C0.979163 0.971186 0.978972 0.971937 0.978779 0.972641C0.978309 0.974097 0.97766 0.97538 0.976877 0.976413C0.976092 0.977445 0.975187 0.978205 0.974218 0.978645C0.973433 0.979002 0.97262 0.979143 0.97181 0.979065V0.979086H0.938047Z" 
        fill="white"></path>
    </clipPath>
  </defs>
</svg>